<svg xmlns="http://www.w3.org/2000/svg" xmlns:xlink="http://www.w3.org/1999/xlink" width="500" zoomAndPan="magnify" viewBox="0 0 375 374.999991" height="500" preserveAspectRatio="xMidYMid meet" version="1.0"><defs><clipPath id="6eeeac57a1"><path d="M 143 112.5 L 247 112.5 L 247 194 L 143 194 Z M 143 112.5 " clip-rule="nonzero"/></clipPath><clipPath id="72721f3c4c"><path d="M 119 140 L 256 140 L 256 262.5 L 119 262.5 Z M 119 140 " clip-rule="nonzero"/></clipPath></defs><path fill="#7b1fa2" d="M 187.496094 236.847656 C 188.746094 236.847656 189.8125 235.957031 189.8125 234.710938 C 189.8125 233.460938 188.921875 232.394531 187.675781 232.394531 C 186.429688 232.394531 185.359375 233.285156 185.359375 234.53125 C 185.359375 235.777344 186.25 236.667969 187.496094 236.847656 Z M 187.496094 236.847656 " fill-opacity="1" fill-rule="nonzero"/><g clip-path="url(#6eeeac57a1)"><path fill="#7b1fa2" d="M 229.71875 116.953125 L 239.339844 116.953125 L 189.457031 172.714844 L 169.503906 158.816406 C 168.4375 158.105469 167.1875 158.285156 166.476562 159.351562 L 143.851562 189.816406 C 143.136719 190.886719 143.316406 192.132812 144.386719 193.023438 C 144.742188 193.378906 145.277344 193.378906 145.8125 193.378906 C 146.523438 193.378906 147.234375 193.023438 147.59375 192.488281 L 168.96875 163.628906 L 188.566406 177.523438 C 189.457031 178.238281 190.703125 178.058594 191.59375 177.167969 L 242.367188 120.160156 L 242.367188 128.355469 C 242.367188 129.601562 243.257812 130.492188 244.503906 130.492188 C 245.75 130.492188 246.640625 129.425781 246.640625 128.355469 L 246.640625 114.636719 C 246.640625 113.390625 245.574219 112.5 244.503906 112.5 L 229.539062 112.5 C 228.292969 112.5 227.402344 113.570312 227.402344 114.636719 C 227.402344 115.707031 228.472656 116.953125 229.71875 116.953125 Z M 229.71875 116.953125 " fill-opacity="1" fill-rule="nonzero"/></g><g clip-path="url(#72721f3c4c)"><path fill="#7b1fa2" d="M 255.726562 146.703125 C 255.726562 143.320312 253.054688 140.648438 249.847656 140.648438 L 231.679688 140.648438 C 230.429688 140.648438 229.539062 141.714844 229.539062 142.785156 C 229.539062 143.855469 230.609375 144.921875 231.679688 144.921875 L 249.671875 144.921875 C 250.5625 144.921875 251.097656 145.636719 251.097656 146.527344 L 251.097656 224.019531 L 243.4375 224.019531 L 243.4375 158.996094 C 243.4375 157.75 242.367188 156.859375 241.296875 156.859375 L 228.472656 156.859375 C 227.222656 156.859375 226.332031 157.925781 226.332031 158.996094 L 226.332031 224.199219 L 216.714844 224.199219 L 216.714844 199.257812 C 216.714844 198.011719 215.644531 197.121094 214.574219 197.121094 L 201.394531 197.121094 C 200.144531 197.121094 199.253906 198.1875 199.253906 199.257812 L 199.253906 224.199219 L 189.636719 224.199219 L 189.636719 191.777344 C 189.636719 190.527344 188.566406 189.636719 187.496094 189.636719 L 174.671875 189.636719 C 173.421875 189.636719 172.53125 190.707031 172.53125 191.777344 L 172.53125 224.199219 L 162.914062 224.199219 L 162.914062 210.304688 C 162.914062 209.054688 161.84375 208.164062 160.773438 208.164062 L 147.769531 208.164062 C 146.523438 208.164062 145.632812 209.234375 145.632812 210.304688 L 145.632812 224.199219 L 123.71875 224.199219 L 123.71875 214.757812 L 135.300781 214.757812 C 136.546875 214.757812 137.4375 213.6875 137.4375 212.617188 C 137.4375 211.550781 136.367188 210.480469 135.300781 210.480469 L 123.71875 210.480469 L 123.71875 201.574219 L 135.300781 201.574219 C 136.546875 201.574219 137.4375 200.503906 137.4375 199.4375 C 137.4375 198.367188 136.367188 197.296875 135.300781 197.296875 L 123.71875 197.296875 L 123.71875 188.390625 L 135.300781 188.390625 C 136.546875 188.390625 137.4375 187.320312 137.4375 186.253906 C 137.4375 185.183594 136.367188 184.113281 135.300781 184.113281 L 123.71875 184.113281 L 123.71875 175.207031 L 135.300781 175.207031 C 136.546875 175.207031 137.4375 174.140625 137.4375 173.070312 C 137.4375 172 136.367188 170.933594 135.300781 170.933594 L 123.71875 170.933594 L 123.71875 162.023438 L 135.300781 162.023438 C 136.546875 162.023438 137.4375 160.957031 137.4375 159.886719 C 137.4375 158.640625 136.367188 157.75 135.300781 157.75 L 123.71875 157.75 L 123.71875 147.59375 C 123.71875 146.703125 124.433594 145.992188 125.144531 145.992188 L 206.738281 145.992188 C 207.984375 145.992188 208.875 144.921875 208.875 143.855469 C 208.875 142.785156 207.804688 141.714844 206.738281 141.714844 L 125.324219 141.714844 C 121.9375 141.714844 119.445312 144.386719 119.445312 147.773438 L 119.265625 237.914062 C 119.445312 241.65625 122.296875 244.507812 126.035156 244.863281 L 170.21875 244.863281 C 170.21875 248.070312 170.21875 253.414062 170.039062 254.660156 C 169.503906 256.441406 168.078125 257.691406 166.296875 258.222656 L 159.527344 258.222656 C 158.28125 258.222656 157.390625 259.292969 157.390625 260.363281 C 157.390625 261.429688 158.460938 262.5 159.527344 262.5 L 215.644531 262.5 C 216.890625 262.5 217.78125 261.429688 217.78125 260.363281 C 217.78125 259.292969 216.714844 258.222656 215.644531 258.222656 L 208.519531 258.222656 C 206.738281 257.691406 205.488281 256.441406 205.132812 254.660156 C 204.957031 253.414062 204.957031 248.070312 204.777344 244.863281 L 250.027344 244.863281 C 253.589844 244.863281 255.726562 241.480469 255.726562 238.09375 Z M 251.453125 238.09375 C 251.453125 239.164062 250.917969 240.410156 250.207031 240.410156 L 125.859375 240.410156 C 124.613281 240.230469 123.71875 239.164062 123.542969 237.914062 L 123.542969 228.832031 L 251.273438 228.832031 L 251.273438 238.09375 Z M 251.453125 238.09375 " fill-opacity="1" fill-rule="nonzero"/></g></svg>