<svg xmlns="http://www.w3.org/2000/svg" xmlns:xlink="http://www.w3.org/1999/xlink" width="500" zoomAndPan="magnify" viewBox="0 0 375 374.999991" height="500" preserveAspectRatio="xMidYMid meet" version="1.0"><path fill="#7c009f" d="M 278.625 121.921875 C 283.640625 114 292.125 108.5625 302.15625 107.671875 C 313.6875 106.6875 323.859375 111.84375 325.96875 123.9375 C 326.15625 125.0625 325.921875 126.1875 325.359375 127.125 C 326.015625 127.96875 326.390625 129.09375 326.296875 130.265625 L 325.40625 140.15625 C 325.40625 140.578125 325.3125 141 325.125 141.421875 C 321.046875 152.4375 310.59375 160.40625 298.875 161.4375 C 288.328125 162.328125 280.078125 157.828125 276.1875 150 L 275.390625 159.140625 C 275.15625 161.484375 273.28125 163.359375 270.984375 163.546875 L 260.4375 164.484375 C 258.703125 164.625 257.0625 163.828125 256.171875 162.328125 L 248.296875 149.25 L 247.21875 161.625 C 246.984375 163.921875 245.109375 165.796875 242.8125 166.03125 L 232.265625 166.921875 C 230.671875 167.0625 229.265625 166.40625 228.328125 165.28125 C 227.578125 166.546875 226.171875 167.484375 224.625 167.625 L 214.078125 168.515625 C 212.53125 168.65625 211.078125 168 210.1875 166.921875 C 209.390625 168.1875 208.03125 169.078125 206.484375 169.171875 L 195.9375 170.109375 C 193.5 170.34375 191.4375 168.609375 191.0625 166.265625 L 190.265625 168.09375 C 189.5625 169.6875 188.015625 170.8125 186.28125 170.953125 L 177.75 171.703125 C 175.59375 171.890625 173.625 170.578125 173.015625 168.46875 L 172.546875 166.828125 L 172.40625 168.140625 C 172.21875 170.484375 170.34375 172.359375 168 172.546875 L 157.5 173.484375 C 154.640625 173.71875 152.296875 171.375 152.578125 168.5625 L 153.140625 161.71875 C 148.03125 169.78125 139.359375 175.5 129.46875 176.34375 C 118.78125 177.28125 110.203125 172.265625 106.359375 164.015625 C 101.671875 173.390625 92.671875 179.484375 81.984375 180.375 C 66.1875 181.78125 55.875 170.8125 57.234375 155.203125 C 58.546875 140.015625 70.03125 127.96875 85.3125 126.65625 C 95.484375 125.765625 104.203125 130.03125 107.90625 138.84375 C 112.875 129.796875 122.15625 123.328125 132.796875 122.390625 C 143.25 121.453125 151.59375 126.1875 155.53125 134.109375 L 156.328125 124.96875 C 156.5625 122.625 158.4375 120.75 160.734375 120.5625 L 173.203125 119.4375 C 175.3125 119.296875 177.234375 120.515625 177.890625 122.53125 L 183.796875 140.625 L 193.40625 120.140625 C 194.15625 118.546875 195.65625 117.515625 197.34375 117.328125 L 209.765625 116.25 C 211.3125 116.109375 212.71875 116.765625 213.65625 117.890625 C 214.453125 116.625 215.765625 115.734375 217.3125 115.59375 L 227.859375 114.65625 C 229.453125 114.515625 230.90625 115.21875 231.796875 116.34375 C 232.59375 115.03125 233.953125 114.140625 235.546875 114 L 246.046875 113.0625 C 247.78125 112.921875 249.46875 113.765625 250.359375 115.265625 L 258.234375 128.390625 L 259.3125 115.921875 C 259.5 113.625 261.375 111.75 263.71875 111.5625 L 274.265625 110.625 C 277.078125 110.390625 279.421875 112.734375 279.140625 115.546875 Z M 104.390625 149.53125 L 93.46875 150.46875 C 91.453125 150.65625 89.625 149.53125 88.875 147.703125 C 88.125 145.875 86.71875 145.5 84.890625 145.6875 C 80.0625 146.109375 77.671875 150.328125 77.25 154.78125 C 76.921875 158.53125 77.8125 161.8125 82.171875 161.4375 C 84.75 161.25 86.671875 159.890625 87.890625 157.59375 C 88.6875 156.1875 90.09375 155.203125 91.734375 155.0625 L 103.3125 154.078125 C 103.59375 154.03125 103.828125 154.03125 104.109375 154.078125 C 104.109375 153.046875 104.109375 152.0625 104.203125 151.03125 C 104.25 150.515625 104.296875 150 104.390625 149.53125 Z M 299.71875 127.265625 L 303.890625 126.890625 C 303.234375 126.75 302.484375 126.75 301.828125 126.796875 C 301.078125 126.890625 300.375 127.03125 299.71875 127.265625 Z M 124.3125 150.609375 C 123.9375 154.78125 125.15625 157.734375 129.75 157.359375 C 134.8125 156.890625 137.484375 152.8125 137.859375 148.078125 C 138.234375 143.953125 137.0625 140.90625 132.515625 141.328125 C 127.359375 141.796875 124.734375 145.734375 124.3125 150.609375 Z M 254.484375 202.5 L 256.78125 176.203125 C 256.96875 173.90625 258.84375 172.078125 261.09375 171.890625 L 276.75 170.484375 C 278.484375 170.34375 280.078125 171.140625 280.96875 172.640625 L 296.34375 198.234375 L 298.546875 172.546875 C 298.78125 170.25 300.609375 168.421875 302.90625 168.234375 L 318.515625 166.828125 C 321.328125 166.59375 323.625 168.9375 323.390625 171.703125 L 317.765625 236.390625 C 317.578125 238.6875 315.75 240.515625 313.453125 240.703125 L 297.796875 242.109375 C 296.109375 242.25 294.46875 241.40625 293.578125 239.953125 L 278.203125 214.5 L 276 240.046875 C 275.8125 242.34375 273.9375 244.171875 271.6875 244.359375 L 256.03125 245.765625 C 253.265625 246 250.921875 243.65625 251.15625 240.890625 L 253.265625 216.84375 C 248.625 234.5625 233.109375 248.390625 214.453125 250.03125 C 204.9375 250.875 195.375 248.34375 188.4375 241.546875 C 184.21875 237.375 181.546875 232.3125 180.28125 226.78125 C 174.609375 242.71875 159.984375 254.765625 142.59375 256.3125 C 133.078125 257.15625 123.515625 254.625 116.578125 247.828125 C 112.734375 244.03125 110.203125 239.484375 108.796875 234.515625 C 108.75 234.890625 108.75 235.21875 108.703125 235.546875 C 107.390625 251.015625 93.84375 260.578125 79.265625 261.84375 C 64.265625 263.15625 50.15625 256.40625 51.046875 239.34375 C 51.140625 238.171875 51.609375 237.140625 52.40625 236.296875 C 53.203125 235.453125 54.234375 234.9375 55.40625 234.84375 L 70.734375 233.484375 C 70.171875 233.390625 69.796875 233.296875 69.5625 233.203125 C 58.921875 230.0625 52.5 223.921875 53.625 211.96875 C 55.03125 196.40625 68.53125 187.78125 83.015625 186.515625 C 97.875 185.25 110.8125 191.859375 110.25 208.40625 C 110.203125 209.578125 109.734375 210.65625 108.9375 211.5 C 108.140625 212.34375 107.0625 212.859375 105.890625 213 L 90.609375 214.3125 C 91.6875 214.59375 92.484375 214.828125 92.90625 214.921875 C 99.84375 217.125 105.140625 220.546875 107.484375 226.21875 C 107.4375 224.53125 107.484375 222.84375 107.625 221.15625 C 109.453125 200.0625 126.75 182.71875 147.84375 180.84375 C 157.3125 180.046875 166.828125 182.484375 173.765625 189.234375 C 177.984375 193.40625 180.609375 198.515625 181.875 204 C 187.59375 188.0625 202.359375 176.109375 219.703125 174.5625 C 229.171875 173.765625 238.6875 176.203125 245.625 182.953125 C 251.0625 188.296875 253.828125 195.234375 254.484375 202.5 Z M 79.40625 210.609375 C 79.875 211.21875 82.40625 212.109375 85.171875 212.859375 C 84.46875 212.0625 84.09375 211.03125 84.09375 209.90625 C 84.140625 208.453125 83.484375 208.3125 82.078125 208.40625 C 80.578125 208.5 79.546875 208.921875 79.40625 210.515625 C 79.40625 210.5625 79.40625 210.5625 79.40625 210.609375 Z M 75.65625 234.703125 C 76.40625 235.5 76.921875 236.625 76.921875 237.84375 C 76.921875 239.8125 77.390625 240.234375 79.359375 240.046875 C 80.8125 239.953125 82.921875 239.4375 83.0625 237.65625 C 83.0625 237.609375 83.0625 237.46875 83.0625 237.375 C 82.6875 236.625 79.078125 235.59375 75.65625 234.703125 Z M 132.796875 220.3125 C 132.140625 227.859375 135.046875 233.4375 143.34375 232.734375 C 151.96875 231.984375 156.84375 225 157.546875 216.796875 C 158.203125 209.25 155.4375 203.625 147.140625 204.328125 C 138.328125 205.125 133.546875 211.921875 132.796875 220.3125 Z M 204.65625 214.03125 C 204 221.578125 206.90625 227.15625 215.203125 226.453125 C 223.828125 225.703125 228.703125 218.71875 229.40625 210.515625 C 230.0625 202.96875 227.296875 197.34375 219 198.046875 C 210.1875 198.84375 205.40625 205.59375 204.65625 214.03125 Z M 204.65625 214.03125 " fill-opacity="1" fill-rule="evenodd"/><path fill="#7c009f" d="M 268.875 113.53125 C 273.890625 105.5625 282.328125 100.125 292.40625 99.28125 C 303.9375 98.25 314.109375 103.40625 316.171875 115.546875 C 316.359375 116.625 316.171875 117.75 315.609375 118.6875 C 316.265625 119.578125 316.640625 120.65625 316.546875 121.875 L 315.65625 131.765625 C 315.609375 132.1875 315.515625 132.609375 315.375 132.984375 C 311.296875 144 300.84375 151.96875 289.125 153 C 278.578125 153.9375 270.328125 149.390625 266.390625 141.609375 L 265.640625 150.75 C 265.40625 153.046875 263.53125 154.921875 261.234375 155.15625 L 250.6875 156.046875 C 248.953125 156.1875 247.3125 155.390625 246.421875 153.890625 L 238.5 140.8125 L 237.421875 153.1875 C 237.234375 155.53125 235.359375 157.40625 233.0625 157.59375 L 222.515625 158.53125 C 220.921875 158.671875 219.46875 157.96875 218.578125 156.84375 C 217.78125 158.15625 216.421875 159.046875 214.875 159.1875 L 204.328125 160.125 C 202.734375 160.265625 201.328125 159.609375 200.4375 158.484375 C 199.640625 159.75 198.28125 160.640625 196.734375 160.78125 L 186.1875 161.71875 C 183.75 161.90625 181.640625 160.171875 181.3125 157.875 L 180.515625 159.65625 C 179.8125 161.296875 178.265625 162.375 176.53125 162.5625 L 168 163.3125 C 165.84375 163.5 163.875 162.140625 163.265625 160.078125 L 162.75 158.4375 L 162.65625 159.75 C 162.46875 162.046875 160.59375 163.921875 158.25 164.15625 L 147.703125 165.046875 C 144.890625 165.328125 142.546875 162.984375 142.78125 160.125 L 143.390625 153.28125 C 138.28125 161.390625 129.609375 167.0625 119.671875 167.953125 C 109.03125 168.890625 100.453125 163.875 96.609375 155.625 C 91.921875 164.953125 82.875 171.046875 72.234375 171.984375 C 56.4375 173.34375 46.125 162.375 47.484375 146.765625 C 48.796875 131.625 60.28125 119.578125 75.5625 118.21875 C 85.734375 117.328125 94.453125 121.59375 98.15625 130.40625 C 103.125 121.359375 112.40625 114.890625 123.046875 113.953125 C 133.5 113.0625 141.84375 117.796875 145.78125 125.671875 L 146.578125 116.53125 C 146.8125 114.234375 148.6875 112.3125 150.984375 112.125 L 163.453125 111.046875 C 165.5625 110.859375 167.484375 112.125 168.140625 114.140625 L 174.046875 132.1875 L 183.65625 111.703125 C 184.359375 110.15625 185.90625 109.078125 187.59375 108.9375 L 200.015625 107.859375 C 201.5625 107.71875 202.96875 108.375 203.90625 109.453125 C 204.65625 108.1875 206.015625 107.296875 207.5625 107.15625 L 218.109375 106.265625 C 219.703125 106.125 221.15625 106.78125 222.046875 107.90625 C 222.84375 106.640625 224.203125 105.703125 225.75 105.609375 L 236.296875 104.671875 C 238.03125 104.53125 239.71875 105.328125 240.609375 106.828125 L 248.484375 119.953125 L 249.5625 107.53125 C 249.75 105.1875 251.625 103.3125 253.921875 103.125 L 264.46875 102.1875 C 267.328125 101.953125 269.671875 104.296875 269.390625 107.109375 Z M 94.640625 141.09375 L 83.71875 142.078125 C 81.703125 142.21875 79.875 141.140625 79.125 139.265625 C 78.375 137.484375 76.96875 137.109375 75.140625 137.25 C 70.3125 137.671875 67.875 141.890625 67.5 146.34375 C 67.171875 150.09375 68.0625 153.421875 72.421875 153.046875 C 75 152.8125 76.921875 151.453125 78.140625 149.203125 C 78.890625 147.75 80.34375 146.8125 81.984375 146.671875 L 93.5625 145.640625 C 93.84375 145.59375 94.078125 145.59375 94.359375 145.640625 C 94.3125 144.65625 94.359375 143.625 94.453125 142.59375 C 94.5 142.125 94.546875 141.609375 94.640625 141.09375 Z M 289.96875 118.828125 L 294.140625 118.453125 C 293.484375 118.3125 292.734375 118.359375 292.078125 118.40625 C 291.328125 118.453125 290.625 118.59375 289.96875 118.828125 Z M 114.5625 142.171875 C 114.1875 146.34375 115.40625 149.34375 120 148.921875 C 125.015625 148.5 127.734375 144.421875 128.109375 139.640625 C 128.484375 135.515625 127.3125 132.515625 122.71875 132.890625 C 117.5625 133.359375 114.984375 137.296875 114.5625 142.171875 Z M 244.734375 194.109375 L 247.03125 167.765625 C 247.21875 165.515625 249.09375 163.640625 251.34375 163.453125 L 267 162.09375 C 268.6875 161.953125 270.328125 162.75 271.21875 164.25 L 286.59375 189.796875 L 288.796875 164.109375 C 289.03125 161.859375 290.859375 159.984375 293.15625 159.796875 L 308.765625 158.4375 C 311.578125 158.203125 313.875 160.5 313.640625 163.3125 L 308.015625 227.953125 C 307.828125 230.25 306 232.125 303.703125 232.3125 L 288.046875 233.671875 C 286.359375 233.8125 284.71875 233.015625 283.828125 231.515625 L 268.453125 206.0625 L 266.25 231.609375 C 266.0625 233.90625 264.1875 235.78125 261.9375 235.96875 L 246.28125 237.328125 C 243.46875 237.5625 241.171875 235.265625 241.40625 232.453125 L 243.515625 208.453125 C 238.875 226.171875 223.359375 239.953125 204.703125 241.59375 C 195.1875 242.4375 185.625 239.90625 178.6875 233.109375 C 174.46875 228.984375 171.796875 223.875 170.53125 218.390625 C 164.859375 234.328125 150.234375 246.375 132.84375 247.875 C 123.328125 248.71875 113.765625 246.234375 106.828125 239.390625 C 102.984375 235.640625 100.40625 231.046875 99.046875 226.125 C 99 226.453125 99 226.78125 98.953125 227.15625 C 97.640625 242.578125 84.09375 252.140625 69.515625 253.453125 C 54.46875 254.765625 40.40625 247.96875 41.296875 230.90625 C 41.390625 229.78125 41.859375 228.703125 42.65625 227.859375 C 43.453125 227.0625 44.484375 226.546875 45.65625 226.40625 L 60.984375 225.09375 C 60.421875 224.953125 60.046875 224.859375 59.8125 224.765625 C 49.125 221.625 42.75 215.484375 43.875 203.53125 C 45.28125 187.96875 58.78125 179.390625 73.265625 178.125 C 88.125 176.8125 101.0625 183.421875 100.5 199.96875 C 100.453125 201.140625 99.984375 202.265625 99.1875 203.109375 C 98.390625 203.953125 97.3125 204.46875 96.140625 204.5625 L 80.859375 205.921875 C 81.890625 206.15625 82.734375 206.390625 83.15625 206.53125 C 90.09375 208.6875 95.390625 212.109375 97.734375 217.78125 C 97.6875 216.09375 97.734375 214.40625 97.875 212.71875 C 99.703125 191.625 116.953125 174.28125 138.046875 172.453125 C 147.5625 171.609375 157.078125 174.046875 164.015625 180.84375 C 168.234375 184.96875 170.859375 190.078125 172.125 195.5625 C 177.84375 179.671875 192.609375 167.671875 209.90625 166.171875 C 219.421875 165.328125 228.9375 167.765625 235.875 174.5625 C 241.265625 179.859375 244.078125 186.796875 244.734375 194.109375 Z M 69.65625 202.171875 C 70.125 202.828125 72.65625 203.671875 75.421875 204.46875 C 74.71875 203.671875 74.34375 202.640625 74.34375 201.46875 C 74.390625 200.015625 73.734375 199.875 72.328125 199.96875 C 70.828125 200.0625 69.796875 200.53125 69.65625 202.125 C 69.65625 202.125 69.65625 202.171875 69.65625 202.171875 Z M 65.859375 226.3125 C 66.65625 227.109375 67.171875 228.1875 67.171875 229.40625 C 67.171875 231.421875 67.59375 231.84375 69.609375 231.65625 C 71.0625 231.515625 73.125 231 73.3125 229.265625 C 73.3125 229.171875 73.3125 229.03125 73.3125 228.984375 C 72.9375 228.234375 69.328125 227.15625 65.859375 226.3125 Z M 123.046875 211.875 C 122.390625 219.46875 125.296875 225.046875 133.546875 224.296875 C 142.21875 223.546875 147.09375 216.5625 147.796875 208.359375 C 148.453125 200.8125 145.6875 195.1875 137.390625 195.9375 C 128.53125 196.6875 123.796875 203.484375 123.046875 211.875 Z M 194.90625 205.59375 C 194.25 213.140625 197.15625 218.765625 205.40625 218.015625 C 214.078125 217.265625 218.953125 210.28125 219.65625 202.078125 C 220.3125 194.53125 217.546875 188.90625 209.25 189.65625 C 200.390625 190.40625 195.65625 197.203125 194.90625 205.59375 Z M 194.90625 205.59375 " fill-opacity="1" fill-rule="evenodd"/><path fill="#ffffff" d="M 51.328125 147.09375 C 52.453125 133.734375 62.53125 123.234375 75.890625 122.0625 C 86.15625 121.171875 94.078125 126.1875 95.8125 136.125 C 95.859375 136.359375 95.8125 136.59375 95.625 136.828125 C 95.4375 137.0625 95.203125 137.15625 94.96875 137.203125 L 83.34375 138.234375 C 83.0625 138.234375 82.78125 138.09375 82.6875 137.8125 C 81.328125 134.53125 78.515625 133.078125 74.765625 133.40625 C 68.015625 134.015625 64.21875 139.6875 63.65625 146.015625 C 63.09375 152.390625 66 157.453125 72.75 156.890625 C 76.5 156.5625 79.59375 154.59375 81.515625 151.03125 C 81.703125 150.703125 81.984375 150.515625 82.3125 150.515625 L 93.890625 149.484375 C 94.171875 149.4375 94.359375 149.53125 94.5 149.765625 C 94.640625 149.953125 94.6875 150.1875 94.59375 150.421875 C 91.03125 160.828125 82.171875 167.25 71.90625 168.140625 C 58.546875 169.3125 50.15625 160.5 51.328125 147.09375 Z M 144.328125 138.9375 C 143.15625 152.109375 132.421875 162.9375 119.34375 164.109375 C 106.3125 165.234375 97.171875 156.140625 98.296875 142.921875 C 99.46875 129.703125 110.34375 118.921875 123.375 117.796875 C 136.5 116.671875 145.453125 125.671875 144.328125 138.9375 Z M 173.390625 142.640625 L 187.125 113.34375 C 187.3125 113.015625 187.59375 112.78125 187.921875 112.78125 L 200.34375 111.703125 C 200.765625 111.65625 201.09375 111.984375 201.09375 112.453125 L 197.296875 156.046875 C 197.25 156.515625 196.828125 156.890625 196.40625 156.9375 L 185.859375 157.875 C 185.4375 157.875 185.0625 157.546875 185.109375 157.125 L 186.984375 135.46875 L 177 158.109375 C 176.859375 158.4375 176.53125 158.671875 176.203125 158.71875 L 167.671875 159.46875 C 167.34375 159.46875 167.0625 159.28125 166.96875 159 L 160.6875 137.71875 L 158.8125 159.421875 C 158.765625 159.84375 158.390625 160.265625 157.921875 160.3125 L 147.375 161.203125 C 146.953125 161.25 146.625 160.921875 146.625 160.453125 L 150.421875 116.859375 C 150.46875 116.390625 150.890625 116.015625 151.3125 115.96875 L 163.78125 114.890625 C 164.109375 114.84375 164.390625 115.03125 164.484375 115.3125 Z M 203.25 155.53125 L 207.046875 111.890625 C 207.09375 111.46875 207.46875 111.046875 207.9375 111 L 218.4375 110.109375 C 218.90625 110.0625 219.234375 110.390625 219.1875 110.859375 L 215.390625 154.453125 C 215.390625 154.921875 214.96875 155.296875 214.546875 155.34375 L 204 156.28125 C 203.53125 156.328125 203.203125 155.953125 203.25 155.53125 Z M 235.6875 128.671875 L 233.578125 152.859375 C 233.578125 153.328125 233.15625 153.703125 232.734375 153.75 L 222.1875 154.6875 C 221.71875 154.734375 221.390625 154.359375 221.4375 153.9375 L 225.234375 110.296875 C 225.28125 109.875 225.65625 109.453125 226.125 109.453125 L 236.625 108.515625 C 236.90625 108.46875 237.140625 108.609375 237.28125 108.796875 L 251.296875 132.140625 L 253.40625 107.859375 C 253.453125 107.390625 253.828125 107.015625 254.296875 106.96875 L 264.84375 106.03125 C 265.265625 105.984375 265.59375 106.359375 265.546875 106.78125 L 261.796875 150.421875 C 261.75 150.84375 261.328125 151.265625 260.90625 151.3125 L 250.359375 152.203125 C 250.078125 152.25 249.84375 152.109375 249.703125 151.921875 Z M 300.375 131.203125 L 288.1875 132.234375 C 287.71875 132.28125 287.390625 131.953125 287.4375 131.53125 L 288.140625 123.703125 C 288.140625 123.234375 288.5625 122.8125 288.984375 122.8125 L 311.953125 120.796875 C 312.375 120.75 312.703125 121.078125 312.703125 121.546875 L 311.8125 131.390625 C 311.8125 131.484375 311.8125 131.578125 311.765625 131.625 C 308.0625 141.5625 298.6875 148.3125 288.796875 149.15625 C 275.390625 150.328125 266.71875 141.65625 267.890625 128.15625 C 269.0625 114.65625 279.328125 104.296875 292.734375 103.125 C 302.625 102.234375 310.6875 106.40625 312.375 116.15625 C 312.421875 116.4375 312.375 116.671875 312.1875 116.90625 C 312 117.09375 311.765625 117.234375 311.53125 117.28125 L 299.859375 118.265625 C 299.578125 118.3125 299.296875 118.171875 299.203125 117.9375 C 297.84375 115.125 294.984375 114.28125 291.75 114.5625 C 284.90625 115.171875 280.828125 120.515625 280.265625 127.078125 C 279.609375 134.390625 283.125 138.703125 290.578125 138.09375 C 295.03125 137.671875 298.40625 135.28125 300.375 131.203125 Z M 110.71875 141.84375 C 110.109375 148.546875 113.34375 153.375 120.328125 152.765625 C 127.265625 152.15625 131.390625 146.625 131.953125 140.015625 C 132.5625 133.3125 129.375 128.4375 122.390625 129.046875 C 115.359375 129.703125 111.28125 135.09375 110.71875 141.84375 Z M 110.71875 141.84375 " fill-opacity="1" fill-rule="evenodd"/><path fill="#ffffff" d="M 95.109375 226.828125 C 93.9375 240.46875 81.75 248.484375 69.1875 249.609375 C 56.15625 250.734375 44.390625 245.484375 45.140625 231.140625 C 45.1875 230.90625 45.28125 230.71875 45.421875 230.53125 C 45.5625 230.390625 45.75 230.296875 45.984375 230.25 L 62.625 228.796875 C 63 228.796875 63.328125 229.03125 63.328125 229.453125 C 63.328125 233.71875 65.671875 235.875 69.9375 235.5 C 73.359375 235.171875 76.828125 233.4375 77.15625 229.59375 C 78.09375 218.578125 45.5625 227.296875 47.71875 203.90625 C 48.984375 190.078125 61.21875 183.046875 73.59375 181.96875 C 86.390625 180.84375 97.125 185.953125 96.65625 199.875 C 96.609375 200.0625 96.5625 200.25 96.375 200.4375 C 96.234375 200.625 96.046875 200.71875 95.8125 200.71875 L 78.890625 202.21875 C 78.515625 202.21875 78.1875 201.9375 78.234375 201.5625 C 78.28125 197.71875 75.75 195.890625 72.046875 196.125 C 68.71875 196.359375 66.140625 198.1875 65.8125 201.75 C 64.921875 212.015625 97.03125 204.703125 95.109375 226.828125 Z M 169.03125 207.1875 C 167.34375 226.5 151.6875 242.390625 132.515625 244.03125 C 113.390625 245.71875 100.03125 232.40625 101.71875 213.09375 C 103.40625 193.734375 119.296875 177.984375 138.421875 176.296875 C 157.59375 174.609375 170.71875 187.828125 169.03125 207.1875 Z M 240.890625 200.90625 C 239.203125 220.21875 223.546875 236.0625 204.375 237.75 C 185.25 239.4375 171.890625 226.125 173.578125 206.765625 C 175.265625 187.40625 191.15625 171.65625 210.28125 170.015625 C 229.453125 168.328125 242.578125 181.5 240.890625 200.90625 Z M 265.640625 193.921875 L 262.40625 231.28125 C 262.359375 231.703125 261.984375 232.078125 261.5625 232.125 L 245.953125 233.484375 C 245.53125 233.53125 245.203125 233.203125 245.25 232.78125 L 250.875 168.140625 C 250.921875 167.71875 251.296875 167.34375 251.671875 167.296875 L 267.328125 165.9375 C 267.609375 165.890625 267.796875 165.984375 267.9375 166.21875 L 289.40625 201.984375 L 292.640625 164.484375 C 292.6875 164.0625 293.0625 163.6875 293.484375 163.640625 L 309.09375 162.28125 C 309.515625 162.234375 309.84375 162.5625 309.796875 162.984375 L 304.171875 227.625 C 304.125 228.046875 303.796875 228.421875 303.375 228.46875 L 287.71875 229.828125 C 287.484375 229.828125 287.25 229.734375 287.109375 229.546875 Z M 119.203125 211.546875 C 118.3125 221.765625 123.28125 229.078125 133.921875 228.140625 C 144.421875 227.25 150.75 218.8125 151.640625 208.6875 C 152.53125 198.515625 147.65625 191.15625 137.015625 192.09375 C 126.328125 193.03125 120.09375 201.234375 119.203125 211.546875 Z M 191.0625 205.265625 C 190.171875 215.484375 195.140625 222.796875 205.78125 221.859375 C 216.28125 220.96875 222.609375 212.53125 223.5 202.40625 C 224.390625 192.234375 219.515625 184.875 208.875 185.8125 C 198.1875 186.75 191.953125 194.953125 191.0625 205.265625 Z M 191.0625 205.265625 " fill-opacity="1" fill-rule="evenodd"/><path fill="#7c009f" d="M 9.5625 185.4375 L 33.140625 178.59375 L 5.8125 176.71875 Z M 9.5625 185.4375 " fill-opacity="1" fill-rule="evenodd"/><path fill="#7c009f" d="M 38.25 171.1875 L 0.234375 158.671875 L 2.859375 146.8125 Z M 38.25 171.1875 " fill-opacity="1" fill-rule="evenodd"/><path fill="#7c009f" d="M 40.171875 162.65625 L 23.578125 147.328125 L 28.125 141.9375 Z M 40.171875 162.65625 " fill-opacity="1" fill-rule="evenodd"/><path fill="#7c009f" d="M 338.34375 125.765625 L 332.53125 149.296875 L 347.625 126.890625 Z M 338.34375 125.765625 " fill-opacity="1" fill-rule="evenodd"/><path fill="#7c009f" d="M 336.375 157.3125 L 365.765625 131.015625 L 374.578125 139.125 Z M 336.375 157.3125 " fill-opacity="1" fill-rule="evenodd"/><path fill="#7c009f" d="M 342.703125 163.171875 L 363.9375 156.515625 L 366.28125 163.078125 Z M 342.703125 163.171875 " fill-opacity="1" fill-rule="evenodd"/></svg>