<svg xmlns="http://www.w3.org/2000/svg" xmlns:xlink="http://www.w3.org/1999/xlink" width="500" zoomAndPan="magnify" viewBox="0 0 375 374.999991" height="500" preserveAspectRatio="xMidYMid meet" version="1.0"><defs><clipPath id="c347724a8f"><path d="M 4.398438 154 L 43 154 L 43 179 L 4.398438 179 Z M 4.398438 154 " clip-rule="nonzero"/></clipPath><clipPath id="3ff886bea8"><path d="M 336 138 L 374.898438 138 L 374.898438 165 L 336 165 Z M 336 138 " clip-rule="nonzero"/></clipPath></defs><path fill="#ff3131" d="M 279.746094 129.40625 C 284.703125 121.578125 293.089844 116.207031 303 115.324219 C 314.394531 114.351562 324.449219 119.449219 326.53125 131.398438 C 326.71875 132.511719 326.488281 133.621094 325.929688 134.550781 C 326.578125 135.382812 326.949219 136.496094 326.855469 137.652344 L 325.976562 147.425781 C 325.976562 147.84375 325.882812 148.261719 325.699219 148.675781 C 321.667969 159.5625 311.339844 167.4375 299.757812 168.457031 C 289.335938 169.335938 281.183594 164.890625 277.339844 157.152344 L 276.550781 166.1875 C 276.320312 168.503906 274.464844 170.355469 272.195312 170.542969 L 261.773438 171.46875 C 260.058594 171.605469 258.4375 170.820312 257.558594 169.335938 L 249.777344 156.414062 L 248.710938 168.640625 C 248.480469 170.910156 246.625 172.765625 244.355469 172.996094 L 233.933594 173.875 C 232.359375 174.015625 230.96875 173.367188 230.042969 172.253906 C 229.300781 173.507812 227.914062 174.433594 226.382812 174.570312 L 215.960938 175.453125 C 214.433594 175.589844 212.996094 174.941406 212.117188 173.875 C 211.328125 175.128906 209.984375 176.007812 208.457031 176.101562 L 198.035156 177.027344 C 195.625 177.257812 193.585938 175.542969 193.21875 173.226562 L 192.429688 175.035156 C 191.734375 176.609375 190.207031 177.722656 188.492188 177.859375 L 180.0625 178.601562 C 177.929688 178.785156 175.984375 177.488281 175.382812 175.40625 L 174.917969 173.785156 L 174.78125 175.082031 C 174.59375 177.398438 172.742188 179.25 170.425781 179.433594 L 160.050781 180.363281 C 157.226562 180.59375 154.910156 178.277344 155.1875 175.496094 L 155.742188 168.734375 C 150.691406 176.703125 142.125 182.351562 132.351562 183.1875 C 121.789062 184.113281 113.3125 179.15625 109.511719 171.003906 C 104.878906 180.269531 95.988281 186.289062 85.425781 187.171875 C 69.816406 188.5625 59.625 177.722656 60.96875 162.296875 C 62.265625 147.289062 73.613281 135.382812 88.714844 134.085938 C 98.765625 133.207031 107.382812 137.421875 111.042969 146.128906 C 115.953125 137.1875 125.125 130.796875 135.636719 129.871094 C 145.96875 128.945312 154.214844 133.621094 158.105469 141.449219 L 158.890625 132.417969 C 159.125 130.101562 160.976562 128.25 163.246094 128.0625 L 175.570312 126.953125 C 177.652344 126.8125 179.550781 128.015625 180.199219 130.007812 L 186.039062 147.890625 L 195.535156 127.648438 C 196.273438 126.070312 197.757812 125.054688 199.425781 124.867188 L 211.699219 123.800781 C 213.226562 123.664062 214.617188 124.3125 215.542969 125.421875 C 216.332031 124.171875 217.628906 123.292969 219.15625 123.152344 L 229.582031 122.226562 C 231.15625 122.089844 232.589844 122.78125 233.472656 123.894531 C 234.257812 122.597656 235.601562 121.71875 237.175781 121.578125 L 247.554688 120.652344 C 249.265625 120.511719 250.933594 121.347656 251.816406 122.828125 L 259.597656 135.800781 L 260.664062 123.476562 C 260.847656 121.207031 262.699219 119.355469 265.015625 119.167969 L 275.4375 118.242188 C 278.21875 118.011719 280.535156 120.328125 280.257812 123.105469 Z M 107.566406 156.691406 L 96.773438 157.617188 C 94.78125 157.800781 92.976562 156.691406 92.234375 154.882812 C 91.492188 153.078125 90.105469 152.707031 88.296875 152.890625 C 83.527344 153.308594 81.164062 157.476562 80.746094 161.878906 C 80.421875 165.585938 81.300781 168.828125 85.609375 168.457031 C 88.15625 168.273438 90.058594 166.929688 91.261719 164.660156 C 92.050781 163.269531 93.4375 162.296875 95.058594 162.15625 L 106.5 161.183594 C 106.78125 161.136719 107.011719 161.136719 107.289062 161.183594 C 107.289062 160.164062 107.289062 159.191406 107.382812 158.171875 C 107.429688 157.664062 107.472656 157.152344 107.566406 156.691406 Z M 300.59375 134.6875 L 304.714844 134.316406 C 304.066406 134.179688 303.324219 134.179688 302.675781 134.222656 C 301.9375 134.316406 301.242188 134.457031 300.59375 134.6875 Z M 127.253906 157.757812 C 126.882812 161.878906 128.089844 164.796875 132.628906 164.425781 C 137.628906 163.964844 140.269531 159.933594 140.640625 155.253906 C 141.011719 151.179688 139.855469 148.167969 135.359375 148.585938 C 130.265625 149.046875 127.671875 152.9375 127.253906 157.757812 Z M 255.890625 209.035156 L 258.160156 183.046875 C 258.347656 180.777344 260.199219 178.972656 262.421875 178.785156 L 277.894531 177.398438 C 279.609375 177.257812 281.183594 178.046875 282.0625 179.527344 L 297.257812 204.820312 L 299.433594 179.433594 C 299.664062 177.164062 301.472656 175.359375 303.742188 175.171875 L 319.167969 173.785156 C 321.945312 173.550781 324.214844 175.867188 323.984375 178.601562 L 318.425781 242.527344 C 318.242188 244.796875 316.433594 246.601562 314.164062 246.789062 L 298.691406 248.175781 C 297.027344 248.316406 295.40625 247.484375 294.523438 246.046875 L 279.332031 220.894531 L 277.152344 246.140625 C 276.96875 248.410156 275.113281 250.214844 272.890625 250.402344 L 257.421875 251.789062 C 254.6875 252.023438 252.371094 249.707031 252.601562 246.972656 L 254.6875 223.210938 C 250.101562 240.71875 234.769531 254.382812 216.332031 256.007812 C 206.929688 256.839844 197.480469 254.339844 190.625 247.621094 C 186.453125 243.5 183.8125 238.496094 182.5625 233.03125 C 176.957031 248.78125 162.503906 260.683594 145.320312 262.214844 C 135.917969 263.046875 126.464844 260.546875 119.609375 253.828125 C 115.8125 250.078125 113.3125 245.582031 111.921875 240.671875 C 111.875 241.042969 111.875 241.367188 111.828125 241.691406 C 110.53125 256.980469 97.144531 266.429688 82.738281 267.679688 C 67.914062 268.976562 53.972656 262.304688 54.851562 245.445312 C 54.945312 244.285156 55.410156 243.265625 56.195312 242.433594 C 56.984375 241.601562 58.003906 241.089844 59.160156 240.996094 L 74.308594 239.652344 C 73.75 239.5625 73.382812 239.46875 73.148438 239.375 C 62.632812 236.273438 56.289062 230.203125 57.398438 218.390625 C 58.789062 203.011719 72.128906 194.488281 86.445312 193.238281 C 101.128906 191.988281 113.914062 198.519531 113.359375 214.871094 C 113.3125 216.03125 112.847656 217.09375 112.058594 217.929688 C 111.273438 218.761719 110.207031 219.273438 109.050781 219.410156 L 93.949219 220.707031 C 95.015625 220.988281 95.800781 221.21875 96.21875 221.3125 C 103.074219 223.488281 108.308594 226.871094 110.625 232.472656 C 110.578125 230.808594 110.625 229.140625 110.761719 227.472656 C 112.570312 206.625 129.664062 189.488281 150.507812 187.632812 C 159.863281 186.847656 169.269531 189.253906 176.125 195.925781 C 180.292969 200.046875 182.886719 205.097656 184.136719 210.515625 C 189.789062 194.769531 204.382812 182.957031 221.519531 181.425781 C 230.878906 180.640625 240.28125 183.046875 247.136719 189.71875 C 252.511719 195 255.242188 201.855469 255.890625 209.035156 Z M 82.878906 217.050781 C 83.339844 217.652344 85.84375 218.53125 88.574219 219.273438 C 87.878906 218.484375 87.507812 217.464844 87.507812 216.355469 C 87.554688 214.917969 86.90625 214.777344 85.519531 214.871094 C 84.035156 214.964844 83.015625 215.382812 82.878906 216.957031 C 82.878906 217.003906 82.878906 217.003906 82.878906 217.050781 Z M 79.171875 240.859375 C 79.914062 241.644531 80.421875 242.757812 80.421875 243.960938 C 80.421875 245.90625 80.886719 246.324219 82.832031 246.140625 C 84.265625 246.046875 86.351562 245.539062 86.492188 243.777344 C 86.492188 243.730469 86.492188 243.589844 86.492188 243.5 C 86.121094 242.757812 82.554688 241.738281 79.171875 240.859375 Z M 135.636719 226.636719 C 134.988281 234.09375 137.863281 239.609375 146.0625 238.914062 C 154.585938 238.171875 159.402344 231.269531 160.097656 223.164062 C 160.746094 215.707031 158.011719 210.148438 149.8125 210.839844 C 141.105469 211.628906 136.378906 218.347656 135.636719 226.636719 Z M 206.652344 220.429688 C 206.003906 227.886719 208.875 233.402344 217.074219 232.707031 C 225.597656 231.964844 230.414062 225.0625 231.109375 216.957031 C 231.757812 209.5 229.023438 203.941406 220.824219 204.632812 C 212.117188 205.421875 207.390625 212.09375 206.652344 220.429688 Z M 206.652344 220.429688 " fill-opacity="1" fill-rule="evenodd"/><path fill="#ff3131" d="M 270.113281 121.117188 C 275.070312 113.242188 283.40625 107.867188 293.367188 107.035156 C 304.761719 106.015625 314.8125 111.109375 316.851562 123.105469 C 317.035156 124.171875 316.851562 125.285156 316.296875 126.210938 C 316.945312 127.089844 317.316406 128.15625 317.222656 129.359375 L 316.34375 139.132812 C 316.296875 139.550781 316.203125 139.96875 316.0625 140.339844 C 312.035156 151.226562 301.703125 159.101562 290.125 160.117188 C 279.699219 161.046875 271.546875 156.550781 267.65625 148.863281 L 266.917969 157.894531 C 266.683594 160.164062 264.832031 162.019531 262.5625 162.25 L 252.140625 163.128906 C 250.425781 163.269531 248.804688 162.480469 247.925781 161 L 240.09375 148.074219 L 239.03125 160.304688 C 238.84375 162.621094 236.992188 164.472656 234.722656 164.660156 L 224.300781 165.585938 C 222.722656 165.722656 221.289062 165.027344 220.410156 163.917969 C 219.621094 165.214844 218.277344 166.09375 216.75 166.234375 L 206.328125 167.160156 C 204.75 167.296875 203.363281 166.648438 202.480469 165.539062 C 201.695312 166.789062 200.351562 167.667969 198.820312 167.808594 L 188.398438 168.734375 C 185.992188 168.921875 183.90625 167.207031 183.582031 164.9375 L 182.792969 166.695312 C 182.101562 168.316406 180.570312 169.382812 178.855469 169.570312 L 170.425781 170.308594 C 168.296875 170.496094 166.351562 169.152344 165.75 167.113281 L 165.238281 165.492188 L 165.144531 166.789062 C 164.960938 169.058594 163.109375 170.910156 160.792969 171.144531 L 150.367188 172.023438 C 147.589844 172.300781 145.273438 169.984375 145.503906 167.160156 L 146.105469 160.398438 C 141.058594 168.410156 132.488281 174.015625 122.667969 174.894531 C 112.152344 175.820312 103.675781 170.867188 99.878906 162.710938 C 95.246094 171.929688 86.304688 177.953125 75.789062 178.878906 C 60.179688 180.222656 49.988281 169.382812 51.332031 153.957031 C 52.628906 138.996094 63.976562 127.089844 79.078125 125.746094 C 89.132812 124.867188 97.746094 129.082031 101.40625 137.792969 C 106.316406 128.851562 115.488281 122.457031 126.003906 121.53125 C 136.332031 120.652344 144.578125 125.332031 148.46875 133.113281 L 149.257812 124.078125 C 149.488281 121.808594 151.34375 119.910156 153.613281 119.726562 L 165.933594 118.660156 C 168.019531 118.476562 169.917969 119.726562 170.566406 121.71875 L 176.402344 139.550781 L 185.898438 119.308594 C 186.59375 117.78125 188.121094 116.714844 189.789062 116.574219 L 202.066406 115.511719 C 203.59375 115.371094 204.984375 116.019531 205.910156 117.085938 C 206.652344 115.835938 207.992188 114.953125 209.523438 114.816406 L 219.945312 113.933594 C 221.519531 113.796875 222.957031 114.445312 223.835938 115.558594 C 224.625 114.304688 225.96875 113.378906 227.496094 113.285156 L 237.917969 112.359375 C 239.632812 112.222656 241.300781 113.007812 242.179688 114.492188 L 249.960938 127.460938 L 251.027344 115.1875 C 251.210938 112.871094 253.066406 111.015625 255.335938 110.832031 L 265.757812 109.90625 C 268.582031 109.671875 270.898438 111.988281 270.621094 114.769531 Z M 97.933594 148.351562 L 87.140625 149.324219 C 85.148438 149.464844 83.339844 148.398438 82.597656 146.546875 C 81.859375 144.785156 80.46875 144.414062 78.660156 144.554688 C 73.890625 144.972656 71.480469 149.140625 71.113281 153.539062 C 70.789062 157.246094 71.667969 160.535156 75.976562 160.164062 C 78.523438 159.933594 80.421875 158.589844 81.625 156.367188 C 82.367188 154.929688 83.804688 154.003906 85.425781 153.867188 L 96.867188 152.847656 C 97.144531 152.800781 97.375 152.800781 97.652344 152.847656 C 97.609375 151.875 97.652344 150.855469 97.746094 149.835938 C 97.792969 149.371094 97.839844 148.863281 97.933594 148.351562 Z M 290.957031 126.351562 L 295.078125 125.980469 C 294.429688 125.839844 293.691406 125.886719 293.042969 125.933594 C 292.300781 125.980469 291.605469 126.117188 290.957031 126.351562 Z M 117.617188 149.417969 C 117.25 153.539062 118.453125 156.503906 122.992188 156.089844 C 127.949219 155.671875 130.636719 151.640625 131.007812 146.917969 C 131.375 142.839844 130.21875 139.875 125.679688 140.246094 C 120.582031 140.710938 118.035156 144.601562 117.617188 149.417969 Z M 246.257812 200.742188 L 248.527344 174.710938 C 248.710938 172.488281 250.5625 170.632812 252.789062 170.449219 L 268.257812 169.105469 C 269.925781 168.964844 271.546875 169.753906 272.429688 171.234375 L 287.621094 196.480469 L 289.800781 171.097656 C 290.03125 168.875 291.835938 167.019531 294.105469 166.835938 L 309.53125 165.492188 C 312.3125 165.261719 314.582031 167.53125 314.351562 170.308594 L 308.792969 234.1875 C 308.605469 236.457031 306.800781 238.3125 304.53125 238.496094 L 289.058594 239.839844 C 287.390625 239.980469 285.769531 239.191406 284.890625 237.707031 L 269.695312 212.554688 L 267.519531 237.800781 C 267.332031 240.070312 265.480469 241.925781 263.257812 242.109375 L 247.785156 243.453125 C 245.003906 243.683594 242.734375 241.414062 242.96875 238.636719 L 245.050781 214.917969 C 240.464844 232.429688 225.132812 246.046875 206.695312 247.667969 C 197.292969 248.5 187.84375 246 180.988281 239.285156 C 176.820312 235.207031 174.179688 230.160156 172.929688 224.738281 C 167.324219 240.488281 152.871094 252.394531 135.683594 253.875 C 126.28125 254.710938 116.832031 252.253906 109.976562 245.492188 C 106.175781 241.785156 103.628906 237.246094 102.285156 232.382812 C 102.238281 232.707031 102.238281 233.03125 102.195312 233.402344 C 100.898438 248.640625 87.507812 258.089844 73.101562 259.386719 C 58.234375 260.683594 44.335938 253.96875 45.21875 237.105469 C 45.308594 235.996094 45.773438 234.929688 46.5625 234.09375 C 47.347656 233.308594 48.367188 232.796875 49.523438 232.660156 L 64.671875 231.363281 C 64.117188 231.222656 63.746094 231.132812 63.515625 231.039062 C 52.953125 227.933594 46.652344 221.867188 47.765625 210.054688 C 49.15625 194.675781 62.496094 186.199219 76.808594 184.949219 C 91.492188 183.652344 104.277344 190.183594 103.722656 206.535156 C 103.675781 207.691406 103.214844 208.804688 102.425781 209.636719 C 101.636719 210.472656 100.574219 210.980469 99.414062 211.074219 L 84.3125 212.417969 C 85.332031 212.648438 86.167969 212.878906 86.582031 213.019531 C 93.4375 215.148438 98.671875 218.53125 100.988281 224.136719 C 100.941406 222.46875 100.988281 220.800781 101.128906 219.132812 C 102.933594 198.289062 119.980469 181.148438 140.828125 179.34375 C 150.230469 178.507812 159.632812 180.917969 166.488281 187.632812 C 170.660156 191.710938 173.253906 196.761719 174.503906 202.179688 C 180.15625 186.476562 194.746094 174.617188 211.839844 173.136719 C 221.242188 172.300781 230.644531 174.710938 237.5 181.425781 C 242.828125 186.660156 245.609375 193.515625 246.257812 200.742188 Z M 73.242188 208.710938 C 73.707031 209.359375 76.207031 210.191406 78.941406 210.980469 C 78.246094 210.191406 77.875 209.175781 77.875 208.015625 C 77.921875 206.582031 77.273438 206.441406 75.882812 206.535156 C 74.398438 206.625 73.382812 207.089844 73.242188 208.664062 C 73.242188 208.664062 73.242188 208.710938 73.242188 208.710938 Z M 69.488281 232.566406 C 70.277344 233.355469 70.789062 234.417969 70.789062 235.625 C 70.789062 237.617188 71.203125 238.03125 73.195312 237.847656 C 74.632812 237.707031 76.671875 237.199219 76.855469 235.484375 C 76.855469 235.394531 76.855469 235.253906 76.855469 235.207031 C 76.484375 234.464844 72.917969 233.402344 69.488281 232.566406 Z M 126.003906 218.300781 C 125.355469 225.804688 128.226562 231.316406 136.378906 230.574219 C 144.949219 229.832031 149.765625 222.933594 150.460938 214.824219 C 151.109375 207.367188 148.378906 201.808594 140.179688 202.550781 C 131.421875 203.292969 126.746094 210.007812 126.003906 218.300781 Z M 197.015625 212.09375 C 196.367188 219.550781 199.238281 225.109375 207.390625 224.367188 C 215.960938 223.625 220.777344 216.726562 221.472656 208.617188 C 222.121094 201.160156 219.390625 195.601562 211.191406 196.34375 C 202.433594 197.085938 197.757812 203.800781 197.015625 212.09375 Z M 197.015625 212.09375 " fill-opacity="1" fill-rule="evenodd"/><path fill="#ffffff" d="M 55.128906 154.28125 C 56.242188 141.082031 66.203125 130.703125 79.402344 129.546875 C 89.546875 128.664062 97.375 133.621094 99.089844 143.441406 C 99.136719 143.675781 99.089844 143.90625 98.90625 144.136719 C 98.71875 144.371094 98.488281 144.460938 98.257812 144.507812 L 86.769531 145.527344 C 86.492188 145.527344 86.210938 145.386719 86.121094 145.109375 C 84.777344 141.867188 81.996094 140.433594 78.292969 140.757812 C 71.621094 141.359375 67.867188 146.964844 67.3125 153.214844 C 66.757812 159.515625 69.628906 164.519531 76.300781 163.964844 C 80.003906 163.640625 83.0625 161.695312 84.960938 158.171875 C 85.148438 157.847656 85.425781 157.664062 85.75 157.664062 L 97.191406 156.644531 C 97.46875 156.597656 97.652344 156.691406 97.792969 156.921875 C 97.933594 157.109375 97.976562 157.339844 97.886719 157.570312 C 94.367188 167.855469 85.609375 174.199219 75.464844 175.082031 C 62.265625 176.238281 53.972656 167.53125 55.128906 154.28125 Z M 147.035156 146.222656 C 145.875 159.238281 135.269531 169.9375 122.34375 171.097656 C 109.464844 172.207031 100.433594 163.222656 101.546875 150.160156 C 102.703125 137.097656 113.449219 126.441406 126.328125 125.332031 C 139.296875 124.21875 148.144531 133.113281 147.035156 146.222656 Z M 175.753906 149.882812 L 189.324219 120.929688 C 189.511719 120.605469 189.789062 120.375 190.113281 120.375 L 202.390625 119.308594 C 202.804688 119.261719 203.128906 119.585938 203.128906 120.050781 L 199.378906 163.128906 C 199.332031 163.59375 198.914062 163.964844 198.496094 164.011719 L 188.074219 164.9375 C 187.660156 164.9375 187.289062 164.613281 187.335938 164.195312 L 189.1875 142.792969 L 179.320312 165.167969 C 179.179688 165.492188 178.855469 165.722656 178.53125 165.769531 L 170.101562 166.511719 C 169.777344 166.511719 169.5 166.324219 169.40625 166.046875 L 163.199219 145.019531 L 161.347656 166.464844 C 161.300781 166.882812 160.929688 167.296875 160.46875 167.34375 L 150.042969 168.226562 C 149.628906 168.273438 149.304688 167.945312 149.304688 167.484375 L 153.054688 124.402344 C 153.101562 123.941406 153.519531 123.570312 153.9375 123.523438 L 166.257812 122.457031 C 166.582031 122.414062 166.859375 122.597656 166.953125 122.875 Z M 205.261719 162.621094 L 209.011719 119.492188 C 209.058594 119.078125 209.429688 118.660156 209.894531 118.613281 L 220.269531 117.734375 C 220.734375 117.6875 221.058594 118.011719 221.011719 118.476562 L 217.257812 161.554688 C 217.257812 162.019531 216.839844 162.386719 216.425781 162.433594 L 206.003906 163.363281 C 205.539062 163.40625 205.214844 163.035156 205.261719 162.621094 Z M 237.316406 136.078125 L 235.230469 159.980469 C 235.230469 160.441406 234.816406 160.8125 234.398438 160.859375 L 223.976562 161.785156 C 223.511719 161.832031 223.1875 161.460938 223.234375 161.046875 L 226.984375 117.917969 C 227.03125 117.503906 227.402344 117.085938 227.867188 117.085938 L 238.242188 116.160156 C 238.519531 116.113281 238.753906 116.25 238.890625 116.4375 L 252.742188 139.503906 L 254.824219 115.511719 C 254.871094 115.046875 255.242188 114.675781 255.707031 114.628906 L 266.128906 113.703125 C 266.546875 113.65625 266.871094 114.027344 266.824219 114.445312 L 263.117188 157.570312 C 263.070312 157.988281 262.65625 158.40625 262.238281 158.453125 L 251.816406 159.332031 C 251.535156 159.378906 251.304688 159.238281 251.167969 159.054688 Z M 301.242188 138.578125 L 289.195312 139.597656 C 288.734375 139.644531 288.410156 139.320312 288.457031 138.902344 L 289.152344 131.167969 C 289.152344 130.703125 289.566406 130.289062 289.984375 130.289062 L 312.683594 128.296875 C 313.097656 128.25 313.421875 128.574219 313.421875 129.035156 L 312.542969 138.765625 C 312.542969 138.855469 312.542969 138.949219 312.496094 138.996094 C 308.835938 148.816406 299.574219 155.488281 289.800781 156.320312 C 276.550781 157.476562 267.980469 148.910156 269.140625 135.566406 C 270.296875 122.226562 280.441406 111.988281 293.691406 110.832031 C 303.464844 109.953125 311.433594 114.074219 313.097656 123.710938 C 313.144531 123.988281 313.097656 124.21875 312.914062 124.449219 C 312.730469 124.636719 312.496094 124.773438 312.265625 124.820312 L 300.730469 125.792969 C 300.453125 125.839844 300.175781 125.703125 300.082031 125.46875 C 298.738281 122.691406 295.914062 121.855469 292.71875 122.132812 C 285.953125 122.738281 281.925781 128.015625 281.367188 134.503906 C 280.71875 141.730469 284.195312 145.992188 291.558594 145.386719 C 295.960938 144.972656 299.296875 142.609375 301.242188 138.578125 Z M 113.820312 149.09375 C 113.21875 155.71875 116.414062 160.488281 123.316406 159.886719 C 130.171875 159.285156 134.25 153.820312 134.804688 147.289062 C 135.40625 140.664062 132.257812 135.847656 125.355469 136.449219 C 118.40625 137.097656 114.375 142.421875 113.820312 149.09375 Z M 113.820312 149.09375 " fill-opacity="1" fill-rule="evenodd"/><path fill="#ffffff" d="M 98.394531 233.078125 C 97.238281 246.554688 85.195312 254.476562 72.777344 255.589844 C 59.902344 256.699219 48.273438 251.511719 49.015625 237.339844 C 49.0625 237.105469 49.15625 236.921875 49.292969 236.734375 C 49.433594 236.597656 49.617188 236.503906 49.847656 236.457031 L 66.292969 235.023438 C 66.664062 235.023438 66.988281 235.253906 66.988281 235.671875 C 66.988281 239.886719 69.304688 242.015625 73.519531 241.644531 C 76.902344 241.320312 80.328125 239.609375 80.652344 235.808594 C 81.582031 224.921875 49.433594 233.539062 51.5625 210.425781 C 52.8125 196.761719 64.902344 189.8125 77.132812 188.746094 C 89.78125 187.632812 100.386719 192.683594 99.925781 206.441406 C 99.878906 206.625 99.832031 206.8125 99.644531 206.996094 C 99.507812 207.183594 99.320312 207.273438 99.089844 207.273438 L 82.367188 208.757812 C 81.996094 208.757812 81.671875 208.480469 81.71875 208.109375 C 81.765625 204.308594 79.265625 202.503906 75.605469 202.734375 C 72.316406 202.96875 69.769531 204.773438 69.445312 208.292969 C 68.5625 218.4375 100.292969 211.210938 98.394531 233.078125 Z M 171.445312 213.667969 C 169.777344 232.753906 154.304688 248.457031 135.359375 250.078125 C 116.460938 251.746094 103.257812 238.589844 104.925781 219.503906 C 106.59375 200.371094 122.296875 184.808594 141.195312 183.140625 C 160.144531 181.472656 173.113281 194.535156 171.445312 213.667969 Z M 242.457031 207.460938 C 240.789062 226.546875 225.320312 242.203125 206.371094 243.871094 C 187.472656 245.539062 174.269531 232.382812 175.9375 213.25 C 177.605469 194.121094 193.308594 178.554688 212.210938 176.933594 C 231.15625 175.265625 244.125 188.28125 242.457031 207.460938 Z M 266.917969 200.558594 L 263.71875 237.476562 C 263.671875 237.894531 263.304688 238.265625 262.886719 238.3125 L 247.460938 239.652344 C 247.042969 239.699219 246.71875 239.375 246.765625 238.960938 L 252.324219 175.082031 C 252.371094 174.664062 252.742188 174.292969 253.113281 174.246094 L 268.582031 172.902344 C 268.863281 172.859375 269.046875 172.949219 269.1875 173.183594 L 290.402344 208.527344 L 293.597656 171.46875 C 293.644531 171.050781 294.015625 170.679688 294.429688 170.632812 L 309.855469 169.289062 C 310.273438 169.246094 310.597656 169.570312 310.550781 169.984375 L 304.992188 233.863281 C 304.945312 234.28125 304.621094 234.652344 304.207031 234.699219 L 288.734375 236.042969 C 288.503906 236.042969 288.269531 235.949219 288.132812 235.761719 Z M 122.203125 217.976562 C 121.324219 228.074219 126.234375 235.300781 136.75 234.375 C 147.125 233.492188 153.378906 225.15625 154.261719 215.148438 C 155.140625 205.097656 150.324219 197.824219 139.808594 198.75 C 129.246094 199.679688 123.085938 207.785156 122.203125 217.976562 Z M 193.21875 211.769531 C 192.335938 221.867188 197.246094 229.09375 207.761719 228.167969 C 218.136719 227.285156 224.390625 218.949219 225.273438 208.941406 C 226.152344 198.890625 221.335938 191.617188 210.820312 192.542969 C 200.257812 193.472656 194.097656 201.578125 193.21875 211.769531 Z M 193.21875 211.769531 " fill-opacity="1" fill-rule="evenodd"/><path fill="#ff3131" d="M 13.855469 192.175781 L 37.15625 185.410156 L 10.152344 183.558594 Z M 13.855469 192.175781 " fill-opacity="1" fill-rule="evenodd"/><g clip-path="url(#c347724a8f)"><path fill="#ff3131" d="M 42.207031 178.09375 L 4.640625 165.722656 L 7.234375 154.003906 Z M 42.207031 178.09375 " fill-opacity="1" fill-rule="evenodd"/></g><path fill="#ff3131" d="M 44.105469 169.660156 L 27.707031 154.515625 L 32.199219 149.1875 Z M 44.105469 169.660156 " fill-opacity="1" fill-rule="evenodd"/><path fill="#ff3131" d="M 338.761719 133.207031 L 333.019531 156.460938 L 347.933594 134.316406 Z M 338.761719 133.207031 " fill-opacity="1" fill-rule="evenodd"/><g clip-path="url(#3ff886bea8)"><path fill="#ff3131" d="M 336.816406 164.378906 L 365.859375 138.394531 L 374.570312 146.40625 Z M 336.816406 164.378906 " fill-opacity="1" fill-rule="evenodd"/></g><path fill="#ff3131" d="M 343.070312 170.171875 L 364.054688 163.59375 L 366.371094 170.078125 Z M 343.070312 170.171875 " fill-opacity="1" fill-rule="evenodd"/></svg>