<svg xmlns="http://www.w3.org/2000/svg" xmlns:xlink="http://www.w3.org/1999/xlink" width="500" zoomAndPan="magnify" viewBox="0 0 375 374.999991" height="500" preserveAspectRatio="xMidYMid meet" version="1.0"><path fill="#1565c0" d="M 241.597656 145.671875 L 226.339844 145.671875 C 226.179688 145.671875 226.046875 145.800781 226.046875 145.964844 L 226.046875 158.878906 C 226.046875 159.101562 225.8125 159.242188 225.617188 159.136719 C 224.382812 158.476562 223.121094 157.847656 221.835938 157.25 C 221.734375 157.199219 221.667969 157.101562 221.667969 156.984375 L 221.667969 143.484375 C 221.667969 142.273438 222.648438 141.292969 223.859375 141.292969 L 241.597656 141.292969 C 241.726562 141.292969 241.835938 141.210938 241.875 141.089844 C 243.640625 135.445312 250.859375 133.574219 255.125 137.84375 C 260.136719 142.855469 256.566406 151.457031 249.484375 151.457031 C 245.953125 151.457031 242.902344 149.148438 241.875 145.875 C 241.835938 145.753906 241.726562 145.671875 241.597656 145.671875 Z M 187.636719 179.046875 C 192.230469 179.046875 195.953125 182.769531 195.953125 187.363281 C 195.953125 191.957031 192.230469 195.683594 187.636719 195.683594 C 183.042969 195.683594 179.316406 191.957031 179.316406 187.363281 C 179.316406 182.769531 183.042969 179.046875 187.636719 179.046875 Z M 192.105469 159.664062 C 191.929688 159.636719 191.769531 159.773438 191.769531 159.953125 L 191.769531 169.367188 C 191.769531 169.5 191.859375 169.617188 191.992188 169.648438 C 198.566406 171.257812 203.738281 176.433594 205.351562 183.007812 C 205.382812 183.140625 205.496094 183.230469 205.632812 183.230469 L 215.046875 183.230469 C 215.226562 183.230469 215.363281 183.070312 215.335938 182.894531 C 213.425781 170.980469 204.019531 161.574219 192.105469 159.664062 Z M 205.632812 191.496094 C 205.5 191.496094 205.382812 191.589844 205.351562 191.71875 C 203.398438 199.691406 196.207031 205.601562 187.636719 205.601562 C 177.5625 205.601562 169.398438 197.4375 169.398438 187.363281 C 169.398438 178.792969 175.308594 171.601562 183.28125 169.648438 C 183.414062 169.617188 183.503906 169.5 183.503906 169.367188 L 183.503906 159.953125 C 183.503906 159.773438 183.34375 159.636719 183.164062 159.664062 C 169.796875 161.804688 159.582031 173.390625 159.582031 187.363281 C 159.582031 202.859375 172.140625 215.417969 187.636719 215.417969 C 201.609375 215.417969 213.195312 205.203125 215.335938 191.835938 C 215.363281 191.65625 215.226562 191.496094 215.046875 191.496094 Z M 187.484375 154.15625 C 173.863281 154.15625 161.179688 157.578125 150.503906 163.484375 C 139.949219 169.324219 131.363281 177.589844 125.804688 187.371094 C 125.753906 187.464844 125.753906 187.566406 125.804688 187.660156 C 131.363281 197.441406 139.949219 205.707031 150.503906 211.546875 C 172.996094 223.988281 201.972656 223.988281 224.464844 211.546875 C 235.019531 205.707031 243.605469 197.441406 249.164062 187.660156 C 249.214844 187.566406 249.214844 187.464844 249.164062 187.371094 C 243.605469 177.589844 235.019531 169.324219 224.464844 163.484375 C 213.789062 157.578125 201.101562 154.15625 187.484375 154.15625 Z M 125.480469 135.507812 C 129.015625 135.507812 132.066406 137.816406 133.09375 141.089844 C 133.132812 141.210938 133.242188 141.292969 133.371094 141.292969 L 151.109375 141.292969 C 152.320312 141.292969 153.296875 142.273438 153.296875 143.480469 L 153.296875 156.984375 C 153.296875 157.101562 153.234375 157.199219 153.128906 157.25 C 151.847656 157.847656 150.585938 158.476562 149.351562 159.136719 C 149.15625 159.242188 148.921875 159.101562 148.921875 158.878906 L 148.921875 145.964844 C 148.921875 145.800781 148.789062 145.671875 148.628906 145.671875 L 133.371094 145.671875 C 133.242188 145.671875 133.132812 145.753906 133.09375 145.875 C 131.328125 151.519531 124.109375 153.390625 119.84375 149.121094 C 114.828125 144.109375 118.402344 135.507812 125.480469 135.507812 Z M 144.726562 115.277344 C 137.644531 115.277344 134.074219 123.878906 139.089844 128.894531 C 143.355469 133.160156 150.570312 131.292969 152.339844 125.648438 C 152.375 125.523438 152.488281 125.441406 152.617188 125.441406 L 175.082031 125.441406 C 175.242188 125.441406 175.375 125.574219 175.375 125.734375 L 175.375 150.3125 C 175.375 150.492188 175.53125 150.628906 175.707031 150.601562 C 176.957031 150.425781 178.21875 150.277344 179.488281 150.15625 C 179.640625 150.144531 179.753906 150.015625 179.753906 149.867188 L 179.753906 123.253906 C 179.753906 122.042969 178.773438 121.0625 177.5625 121.0625 L 152.617188 121.0625 C 152.488281 121.0625 152.378906 120.984375 152.339844 120.859375 C 151.3125 117.589844 148.261719 115.277344 144.726562 115.277344 Z M 224.601562 117.613281 C 223.703125 118.511719 223.019531 119.621094 222.628906 120.859375 C 222.589844 120.984375 222.480469 121.0625 222.351562 121.0625 L 197.402344 121.0625 C 196.195312 121.0625 195.214844 122.042969 195.214844 123.253906 L 195.214844 149.867188 C 195.214844 150.019531 195.328125 150.144531 195.480469 150.15625 C 196.75 150.277344 198.011719 150.425781 199.261719 150.605469 C 199.4375 150.628906 199.59375 150.492188 199.59375 150.316406 L 199.59375 125.734375 C 199.59375 125.574219 199.722656 125.441406 199.886719 125.441406 L 222.351562 125.441406 C 222.480469 125.441406 222.589844 125.523438 222.628906 125.648438 C 223.019531 126.886719 223.703125 127.996094 224.601562 128.894531 C 229.613281 133.90625 238.214844 130.335938 238.214844 123.253906 C 238.214844 116.171875 229.613281 112.601562 224.601562 117.613281 Z M 150.367188 257.417969 C 145.355469 262.433594 136.75 258.859375 136.75 251.777344 C 136.75 244.699219 145.355469 241.125 150.367188 246.140625 C 151.265625 247.035156 151.949219 248.144531 152.339844 249.386719 C 152.375 249.507812 152.488281 249.589844 152.617188 249.589844 L 175.082031 249.589844 C 175.242188 249.589844 175.375 249.457031 175.375 249.296875 L 175.375 224.71875 C 175.375 224.539062 175.53125 224.402344 175.707031 224.429688 C 176.957031 224.605469 178.21875 224.753906 179.488281 224.875 C 179.640625 224.890625 179.753906 225.015625 179.753906 225.164062 L 179.753906 251.777344 C 179.753906 252.988281 178.773438 253.96875 177.5625 253.96875 L 152.617188 253.96875 C 152.488281 253.96875 152.378906 254.046875 152.339844 254.171875 C 151.949219 255.410156 151.265625 256.523438 150.367188 257.417969 Z M 249.484375 239.527344 C 245.953125 239.527344 242.902344 237.214844 241.875 233.945312 C 241.835938 233.820312 241.726562 233.738281 241.597656 233.738281 L 223.859375 233.738281 C 222.648438 233.738281 221.667969 232.757812 221.667969 231.550781 L 221.667969 218.046875 C 221.667969 217.929688 221.734375 217.832031 221.839844 217.78125 C 223.121094 217.183594 224.382812 216.554688 225.617188 215.894531 C 225.8125 215.789062 226.046875 215.929688 226.046875 216.152344 L 226.046875 229.070312 C 226.046875 229.230469 226.179688 229.359375 226.339844 229.359375 L 241.597656 229.359375 C 241.726562 229.359375 241.835938 229.28125 241.875 229.15625 C 243.640625 223.511719 250.859375 221.644531 255.125 225.910156 C 260.140625 230.921875 256.566406 239.527344 249.484375 239.527344 Z M 230.238281 259.753906 C 237.320312 259.753906 240.894531 251.152344 235.878906 246.140625 C 231.613281 241.871094 224.394531 243.742188 222.628906 249.386719 C 222.589844 249.507812 222.480469 249.589844 222.351562 249.589844 L 199.886719 249.589844 C 199.722656 249.589844 199.59375 249.460938 199.59375 249.296875 L 199.59375 224.71875 C 199.59375 224.539062 199.4375 224.402344 199.261719 224.429688 C 198.011719 224.605469 196.75 224.753906 195.480469 224.875 C 195.328125 224.890625 195.214844 225.015625 195.214844 225.167969 L 195.214844 251.777344 C 195.214844 252.988281 196.195312 253.96875 197.402344 253.96875 L 222.351562 253.96875 C 222.480469 253.96875 222.589844 254.050781 222.628906 254.171875 C 223.65625 257.441406 226.707031 259.753906 230.238281 259.753906 Z M 131.121094 237.191406 C 126.109375 242.203125 117.507812 238.628906 117.507812 231.550781 C 117.507812 224.46875 126.109375 220.898438 131.121094 225.910156 C 132.019531 226.808594 132.703125 227.917969 133.09375 229.15625 C 133.132812 229.28125 133.242188 229.359375 133.371094 229.359375 L 148.628906 229.359375 C 148.789062 229.359375 148.921875 229.230469 148.921875 229.070312 L 148.921875 216.152344 C 148.921875 215.929688 149.15625 215.789062 149.351562 215.894531 C 150.585938 216.554688 151.847656 217.183594 153.128906 217.78125 C 153.234375 217.832031 153.296875 217.929688 153.296875 218.046875 L 153.296875 231.550781 C 153.296875 232.757812 152.320312 233.738281 151.109375 233.738281 L 133.371094 233.738281 C 133.242188 233.738281 133.132812 233.820312 133.09375 233.941406 C 132.703125 235.183594 132.019531 236.292969 131.121094 237.191406 Z M 131.121094 237.191406 " fill-opacity="1" fill-rule="evenodd"/></svg>