<svg xmlns="http://www.w3.org/2000/svg" xmlns:xlink="http://www.w3.org/1999/xlink" width="500" zoomAndPan="magnify" viewBox="0 0 375 374.999991" height="500" preserveAspectRatio="xMidYMid meet" version="1.0"><path fill="#6a1b9a" d="M 121.902344 204.945312 C 121.851562 199.960938 123.410156 194.652344 126.929688 190.089844 C 128.136719 188.523438 127.878906 187.878906 126.625 186.59375 C 112.550781 172.144531 118.550781 148.773438 137.765625 142.90625 C 140.417969 142.097656 143.109375 141.644531 145.863281 141.878906 C 147.824219 142.042969 148.664062 141.386719 149.449219 139.425781 C 153.171875 130.164062 159.957031 124.394531 170.074219 123.644531 C 177.453125 123.097656 183.664062 126.160156 188.34375 131.929688 C 189.613281 133.496094 190.089844 133.539062 191.503906 132 C 205.0625 117.265625 228.585938 122.585938 234.53125 141.726562 C 235.015625 143.28125 235.675781 143.960938 237.152344 144.363281 C 255.3125 149.324219 262.464844 169.625 251.34375 184.871094 C 250.113281 186.558594 250.582031 187.160156 251.742188 188.390625 C 259.589844 196.710938 261.578125 206.347656 257.394531 216.980469 C 253.488281 226.910156 243.792969 233.128906 232.734375 232.992188 C 230.414062 232.964844 229.601562 233.753906 228.808594 235.800781 C 222.160156 253.003906 201.917969 256.609375 189.785156 242.78125 C 188.6875 241.527344 188.308594 241.339844 187.046875 242.6875 C 173.011719 257.730469 149.917969 252.546875 143.730469 232.9375 C 143.132812 231.039062 141.976562 230.855469 140.589844 230.480469 C 129.214844 227.414062 121.671875 217.433594 121.894531 204.949219 Z M 193.582031 205.613281 C 193.582031 214.722656 193.515625 223.328125 193.636719 231.933594 C 193.664062 233.699219 194.667969 235.34375 195.691406 236.835938 C 198.890625 241.511719 204.546875 243.773438 210.046875 242.578125 C 215.953125 241.300781 221.050781 236.128906 221.679688 229.523438 C 222.148438 224.609375 224.734375 223.460938 229.199219 224.414062 C 237.96875 226.285156 246.75 221.371094 249.90625 213.1875 C 253.066406 204.988281 249.9375 196.136719 242.15625 191.285156 C 237.878906 188.621094 237.769531 185.941406 241.808594 182.761719 C 247.179688 178.535156 249.511719 170.753906 247.457031 163.921875 C 245.417969 157.144531 239.488281 152.453125 232.34375 151.964844 C 228.628906 151.714844 227.550781 150.667969 227.125 147.046875 C 226.558594 142.21875 224.5 138.203125 220.53125 135.285156 C 214.675781 130.980469 206.671875 130.785156 200.695312 134.898438 C 193.628906 139.765625 192.292969 146.597656 193.886719 154.476562 C 195.304688 161.46875 201.652344 166.546875 208.726562 167.167969 C 209.355469 167.226562 210.007812 167.128906 210.621094 167.246094 C 212.988281 167.683594 214.488281 169.070312 214.378906 171.546875 C 214.273438 174 212.820312 175.421875 210.300781 175.4375 C 208.515625 175.449219 206.75 175.363281 204.960938 175.007812 C 200.789062 174.175781 197.246094 172.003906 193.410156 169.519531 C 193.410156 175.507812 193.34375 180.984375 193.421875 186.457031 C 193.558594 195.96875 199.964844 202.613281 209.550781 203.3125 C 212.738281 203.542969 214.636719 205.339844 214.414062 207.917969 C 214.203125 210.429688 212.34375 211.714844 209.148438 211.644531 C 203.449219 211.515625 198.527344 209.335938 193.578125 205.613281 Z M 184.828125 205.519531 C 184.828125 199.199219 184.859375 193.457031 184.820312 187.710938 C 184.785156 182.242188 182.261719 178.011719 177.988281 174.8125 C 175.144531 172.679688 171.863281 171.679688 168.273438 171.542969 C 165.496094 171.4375 163.757812 169.613281 163.839844 167.222656 C 163.925781 164.746094 165.648438 163.34375 168.578125 163.296875 C 171.570312 163.246094 174.417969 163.910156 177.214844 164.914062 C 179.863281 165.867188 182.054688 167.691406 184.863281 169.113281 C 184.863281 167.710938 184.867188 166.671875 184.863281 165.636719 C 184.828125 158.359375 184.910156 151.082031 184.699219 143.8125 C 184.597656 140.394531 182.730469 137.613281 180.148438 135.4375 C 176.132812 132.058594 171.535156 130.996094 166.582031 132.886719 C 160.671875 135.140625 157.339844 139.605469 156.371094 145.84375 C 155.636719 150.558594 154.34375 151.457031 149.582031 150.578125 C 140.28125 148.863281 131.730469 153.292969 128.429688 161.539062 C 125.078125 169.914062 128.238281 178.625 136.511719 183.824219 C 140.214844 186.152344 140.359375 189.085938 136.90625 191.828125 C 131.085938 196.460938 128.703125 204.011719 130.839844 211.070312 C 132.921875 217.933594 138.722656 222.40625 146.34375 222.90625 C 149.371094 223.105469 150.839844 224.570312 151.160156 227.613281 C 152.097656 236.539062 158.945312 242.777344 167.886719 243.027344 C 175.839844 243.25 183.617188 236.816406 184.703125 229.125 C 186.121094 219.082031 181.394531 210.777344 172.8125 208.425781 C 171.105469 207.957031 169.277344 207.960938 167.519531 207.644531 C 165.121094 207.210938 163.726562 205.730469 163.882812 203.269531 C 164.027344 200.992188 165.386719 199.550781 167.75 199.5 C 169.417969 199.460938 171.117188 199.597656 172.773438 199.855469 C 177.097656 200.539062 180.816406 202.671875 184.828125 205.523438 Z M 184.828125 205.519531 " fill-opacity="1" fill-rule="nonzero"/><path fill="#6a1b9a" d="M 154.351562 169.191406 C 154.351562 169.75 154.296875 170.300781 154.1875 170.847656 C 154.078125 171.394531 153.917969 171.921875 153.703125 172.4375 C 153.492188 172.953125 153.230469 173.441406 152.921875 173.902344 C 152.609375 174.367188 152.257812 174.796875 151.867188 175.1875 C 151.472656 175.582031 151.042969 175.933594 150.582031 176.242188 C 150.117188 176.554688 149.628906 176.816406 149.113281 177.027344 C 148.601562 177.242188 148.070312 177.402344 147.523438 177.511719 C 146.976562 177.617188 146.425781 177.671875 145.867188 177.671875 C 145.3125 177.671875 144.761719 177.617188 144.214844 177.511719 C 143.667969 177.402344 143.136719 177.242188 142.625 177.027344 C 142.109375 176.816406 141.621094 176.554688 141.15625 176.242188 C 140.695312 175.933594 140.265625 175.582031 139.871094 175.1875 C 139.480469 174.796875 139.128906 174.367188 138.816406 173.902344 C 138.507812 173.441406 138.246094 172.953125 138.035156 172.4375 C 137.820312 171.921875 137.660156 171.394531 137.550781 170.847656 C 137.441406 170.300781 137.386719 169.75 137.386719 169.191406 C 137.386719 168.636719 137.441406 168.085938 137.550781 167.539062 C 137.660156 166.992188 137.820312 166.460938 138.035156 165.945312 C 138.246094 165.433594 138.507812 164.945312 138.816406 164.480469 C 139.128906 164.019531 139.480469 163.589844 139.871094 163.195312 C 140.265625 162.800781 140.695312 162.449219 141.15625 162.140625 C 141.621094 161.832031 142.109375 161.570312 142.625 161.355469 C 143.136719 161.144531 143.667969 160.984375 144.214844 160.875 C 144.761719 160.765625 145.3125 160.710938 145.867188 160.710938 C 146.425781 160.710938 146.976562 160.765625 147.523438 160.875 C 148.070312 160.984375 148.601562 161.144531 149.113281 161.355469 C 149.628906 161.570312 150.117188 161.832031 150.582031 162.140625 C 151.042969 162.449219 151.472656 162.800781 151.867188 163.195312 C 152.257812 163.589844 152.609375 164.019531 152.921875 164.480469 C 153.230469 164.945312 153.492188 165.433594 153.703125 165.945312 C 153.917969 166.460938 154.078125 166.992188 154.1875 167.539062 C 154.296875 168.085938 154.351562 168.636719 154.351562 169.191406 Z M 154.351562 169.191406 " fill-opacity="1" fill-rule="nonzero"/><path fill="#6a1b9a" d="M 157.371094 206.03125 C 157.371094 206.589844 157.316406 207.140625 157.210938 207.6875 C 157.101562 208.230469 156.941406 208.761719 156.726562 209.277344 C 156.515625 209.792969 156.253906 210.28125 155.941406 210.742188 C 155.632812 211.207031 155.28125 211.632812 154.886719 212.027344 C 154.496094 212.421875 154.066406 212.773438 153.601562 213.082031 C 153.140625 213.390625 152.652344 213.652344 152.136719 213.867188 C 151.621094 214.078125 151.09375 214.242188 150.546875 214.347656 C 150 214.457031 149.449219 214.511719 148.890625 214.511719 C 148.335938 214.511719 147.785156 214.457031 147.238281 214.347656 C 146.691406 214.242188 146.160156 214.078125 145.644531 213.867188 C 145.132812 213.652344 144.644531 213.390625 144.179688 213.082031 C 143.71875 212.773438 143.289062 212.421875 142.894531 212.027344 C 142.5 211.632812 142.148438 211.207031 141.839844 210.742188 C 141.53125 210.28125 141.269531 209.792969 141.058594 209.277344 C 140.84375 208.761719 140.683594 208.230469 140.574219 207.6875 C 140.464844 207.140625 140.410156 206.589844 140.410156 206.03125 C 140.410156 205.476562 140.464844 204.921875 140.574219 204.378906 C 140.683594 203.832031 140.84375 203.300781 141.058594 202.785156 C 141.269531 202.273438 141.53125 201.78125 141.839844 201.320312 C 142.148438 200.855469 142.5 200.429688 142.894531 200.035156 C 143.289062 199.640625 143.71875 199.289062 144.179688 198.980469 C 144.644531 198.671875 145.132812 198.410156 145.644531 198.195312 C 146.160156 197.984375 146.691406 197.824219 147.238281 197.714844 C 147.785156 197.605469 148.335938 197.550781 148.890625 197.550781 C 149.449219 197.550781 150 197.605469 150.546875 197.714844 C 151.09375 197.824219 151.621094 197.984375 152.136719 198.195312 C 152.652344 198.410156 153.140625 198.671875 153.601562 198.980469 C 154.066406 199.289062 154.496094 199.640625 154.886719 200.035156 C 155.28125 200.429688 155.632812 200.855469 155.941406 201.320312 C 156.253906 201.78125 156.515625 202.273438 156.726562 202.785156 C 156.941406 203.300781 157.101562 203.832031 157.210938 204.378906 C 157.316406 204.921875 157.371094 205.476562 157.371094 206.03125 Z M 157.371094 206.03125 " fill-opacity="1" fill-rule="nonzero"/><path fill="#6a1b9a" d="M 239.164062 169.191406 C 239.164062 169.75 239.109375 170.300781 239 170.847656 C 238.890625 171.394531 238.730469 171.921875 238.515625 172.4375 C 238.304688 172.953125 238.042969 173.441406 237.734375 173.902344 C 237.421875 174.367188 237.070312 174.796875 236.679688 175.1875 C 236.285156 175.582031 235.855469 175.933594 235.394531 176.242188 C 234.929688 176.554688 234.441406 176.816406 233.925781 177.027344 C 233.414062 177.242188 232.882812 177.402344 232.335938 177.511719 C 231.789062 177.617188 231.238281 177.671875 230.679688 177.671875 C 230.125 177.671875 229.574219 177.617188 229.027344 177.511719 C 228.480469 177.402344 227.949219 177.242188 227.4375 177.027344 C 226.921875 176.816406 226.433594 176.554688 225.96875 176.242188 C 225.507812 175.933594 225.078125 175.582031 224.683594 175.1875 C 224.292969 174.796875 223.941406 174.367188 223.628906 173.902344 C 223.320312 173.441406 223.058594 172.953125 222.847656 172.4375 C 222.632812 171.921875 222.472656 171.394531 222.363281 170.847656 C 222.253906 170.300781 222.199219 169.75 222.199219 169.191406 C 222.199219 168.636719 222.253906 168.085938 222.363281 167.539062 C 222.472656 166.992188 222.632812 166.460938 222.847656 165.945312 C 223.058594 165.433594 223.320312 164.945312 223.628906 164.480469 C 223.941406 164.019531 224.292969 163.589844 224.683594 163.195312 C 225.078125 162.800781 225.507812 162.449219 225.96875 162.140625 C 226.433594 161.832031 226.921875 161.570312 227.4375 161.355469 C 227.949219 161.144531 228.480469 160.984375 229.027344 160.875 C 229.574219 160.765625 230.125 160.710938 230.679688 160.710938 C 231.238281 160.710938 231.789062 160.765625 232.335938 160.875 C 232.882812 160.984375 233.414062 161.144531 233.925781 161.355469 C 234.441406 161.570312 234.929688 161.832031 235.394531 162.140625 C 235.855469 162.449219 236.285156 162.800781 236.679688 163.195312 C 237.070312 163.589844 237.421875 164.019531 237.734375 164.480469 C 238.042969 164.945312 238.304688 165.433594 238.515625 165.945312 C 238.730469 166.460938 238.890625 166.992188 239 167.539062 C 239.109375 168.085938 239.164062 168.636719 239.164062 169.191406 Z M 239.164062 169.191406 " fill-opacity="1" fill-rule="nonzero"/><path fill="#6a1b9a" d="M 239.164062 207.03125 C 239.164062 207.585938 239.109375 208.140625 239 208.683594 C 238.890625 209.230469 238.730469 209.761719 238.515625 210.277344 C 238.304688 210.789062 238.042969 211.28125 237.734375 211.742188 C 237.421875 212.207031 237.070312 212.632812 236.679688 213.027344 C 236.285156 213.421875 235.855469 213.773438 235.394531 214.082031 C 234.929688 214.390625 234.441406 214.652344 233.925781 214.867188 C 233.414062 215.078125 232.882812 215.238281 232.335938 215.347656 C 231.789062 215.457031 231.238281 215.511719 230.679688 215.511719 C 230.125 215.511719 229.574219 215.457031 229.027344 215.347656 C 228.480469 215.238281 227.949219 215.078125 227.4375 214.867188 C 226.921875 214.652344 226.433594 214.390625 225.96875 214.082031 C 225.507812 213.773438 225.078125 213.421875 224.683594 213.027344 C 224.292969 212.632812 223.941406 212.207031 223.628906 211.742188 C 223.320312 211.28125 223.058594 210.789062 222.847656 210.277344 C 222.632812 209.761719 222.472656 209.230469 222.363281 208.683594 C 222.253906 208.140625 222.199219 207.585938 222.199219 207.03125 C 222.199219 206.472656 222.253906 205.921875 222.363281 205.375 C 222.472656 204.832031 222.632812 204.300781 222.847656 203.785156 C 223.058594 203.269531 223.320312 202.78125 223.628906 202.320312 C 223.941406 201.855469 224.292969 201.429688 224.683594 201.035156 C 225.078125 200.640625 225.507812 200.289062 225.96875 199.980469 C 226.433594 199.671875 226.921875 199.410156 227.4375 199.195312 C 227.949219 198.984375 228.480469 198.820312 229.027344 198.714844 C 229.574219 198.605469 230.125 198.550781 230.679688 198.550781 C 231.238281 198.550781 231.789062 198.605469 232.335938 198.714844 C 232.882812 198.820312 233.414062 198.984375 233.925781 199.195312 C 234.441406 199.410156 234.929688 199.671875 235.394531 199.980469 C 235.855469 200.289062 236.285156 200.640625 236.679688 201.035156 C 237.070312 201.429688 237.421875 201.855469 237.734375 202.320312 C 238.042969 202.78125 238.304688 203.269531 238.515625 203.785156 C 238.730469 204.300781 238.890625 204.832031 239 205.375 C 239.109375 205.921875 239.164062 206.472656 239.164062 207.03125 Z M 239.164062 207.03125 " fill-opacity="1" fill-rule="nonzero"/></svg>