<svg xmlns="http://www.w3.org/2000/svg" xmlns:xlink="http://www.w3.org/1999/xlink" width="500" zoomAndPan="magnify" viewBox="0 0 375 374.999991" height="500" preserveAspectRatio="xMidYMid meet" version="1.0"><defs><clipPath id="85dd6025b3"><path d="M 152 121.910156 L 259 121.910156 L 259 194 L 152 194 Z M 152 121.910156 " clip-rule="nonzero"/></clipPath><clipPath id="e9015a041e"><path d="M 112.5 194 L 262 194 L 262 253.160156 L 112.5 253.160156 Z M 112.5 194 " clip-rule="nonzero"/></clipPath></defs><g clip-path="url(#85dd6025b3)"><path fill="#1e88e5" d="M 152.75 164.851562 L 152.75 174.5625 C 152.75 175.945312 153.878906 177.078125 155.261719 177.078125 L 175.570312 177.078125 C 175.445312 178.210938 175.382812 179.371094 175.382812 180.535156 L 175.382812 190.59375 C 175.382812 191.976562 176.511719 193.109375 177.898438 193.109375 L 233.222656 193.109375 C 234.605469 193.109375 235.738281 191.976562 235.738281 190.59375 L 235.738281 180.535156 C 235.738281 179.371094 235.675781 178.210938 235.550781 177.078125 L 255.855469 177.078125 C 257.238281 177.078125 258.371094 175.945312 258.371094 174.5625 L 258.371094 164.851562 C 258.371094 155.386719 252.210938 147.371094 243.691406 144.542969 C 246.078125 142.152344 247.527344 138.851562 247.527344 135.207031 C 247.527344 127.882812 241.554688 121.910156 234.230469 121.910156 C 227.0625 121.910156 221.214844 127.597656 220.929688 134.671875 C 219.171875 127.347656 212.570312 121.910156 204.710938 121.910156 C 197.261719 121.910156 190.941406 126.78125 188.773438 133.539062 C 187.957031 127 182.359375 121.910156 175.601562 121.910156 C 168.277344 121.910156 162.304688 127.882812 162.304688 135.207031 C 162.304688 139.011719 163.90625 142.46875 166.515625 144.886719 C 158.46875 147.96875 152.75 155.765625 152.75 164.851562 Z M 253.339844 164.851562 L 253.339844 172.046875 L 234.511719 172.046875 C 232.28125 164.441406 227.125 158.058594 220.335938 154.222656 C 223.414062 150.609375 227.941406 148.472656 232.78125 148.472656 L 236.996094 148.472656 C 246.015625 148.503906 253.339844 155.828125 253.339844 164.851562 Z M 234.230469 126.9375 C 238.785156 126.9375 242.496094 130.648438 242.496094 135.207031 C 242.496094 139.765625 238.785156 143.472656 234.230469 143.472656 C 229.671875 143.472656 225.960938 139.765625 225.960938 135.207031 C 225.960938 130.648438 229.671875 126.9375 234.230469 126.9375 Z M 221.433594 138.789062 C 222.09375 141.148438 223.382812 143.253906 225.144531 144.886719 C 221.402344 146.335938 218.101562 148.785156 215.648438 152.085938 C 215.429688 151.992188 215.210938 151.929688 214.988281 151.867188 C 218.855469 148.816406 221.402344 144.101562 221.433594 138.789062 Z M 204.710938 126.9375 C 211.15625 126.9375 216.4375 132.1875 216.4375 138.664062 C 216.4375 145.140625 211.1875 150.390625 204.710938 150.390625 C 198.234375 150.390625 192.984375 145.109375 192.984375 138.664062 C 192.984375 132.21875 198.234375 126.9375 204.710938 126.9375 Z M 205.558594 155.386719 C 219.421875 155.386719 230.707031 166.671875 230.707031 180.535156 L 230.707031 188.082031 L 180.410156 188.082031 L 180.410156 180.535156 C 180.410156 166.671875 191.695312 155.386719 205.558594 155.386719 Z M 188.019531 139.890625 C 188.207031 142.5 188.992188 144.949219 190.25 147.089844 C 188.648438 145.988281 186.886719 145.140625 185.03125 144.542969 C 186.320312 143.222656 187.359375 141.652344 188.019531 139.890625 Z M 175.570312 126.9375 C 180.128906 126.9375 183.835938 130.648438 183.835938 135.207031 C 183.835938 139.765625 180.128906 143.472656 175.570312 143.472656 C 171.011719 143.472656 167.304688 139.765625 167.304688 135.207031 C 167.304688 130.648438 171.011719 126.9375 175.570312 126.9375 Z M 174.125 148.503906 L 178.335938 148.503906 C 183.175781 148.503906 187.671875 150.609375 190.785156 154.257812 C 183.996094 158.089844 178.839844 164.472656 176.609375 172.078125 L 157.777344 172.078125 L 157.777344 164.882812 C 157.777344 155.828125 165.101562 148.503906 174.125 148.503906 Z M 174.125 148.503906 " fill-opacity="1" fill-rule="nonzero"/></g><g clip-path="url(#e9015a041e)"><path fill="#1e88e5" d="M 135.898438 194.839844 L 115.027344 194.839844 C 113.644531 194.839844 112.511719 195.972656 112.511719 197.355469 L 112.511719 243.878906 C 112.511719 245.261719 113.644531 246.394531 115.027344 246.394531 L 135.898438 246.394531 C 137.28125 246.394531 138.414062 245.261719 138.414062 243.878906 L 138.414062 239.886719 L 148.472656 239.886719 L 178.304688 249.347656 C 185.0625 251.863281 190.753906 253.089844 196.410156 253.089844 C 202.101562 253.089844 207.792969 251.832031 214.582031 249.316406 C 214.832031 249.222656 215.085938 249.097656 215.304688 248.90625 L 259 213.261719 C 259.125 213.132812 259.25 213.007812 259.375 212.882812 C 262.488281 209.015625 262.332031 203.105469 259 199.429688 C 255.699219 195.75 250.386719 195.375 246.675781 198.578125 L 224.859375 216.214844 C 224.859375 215.996094 224.859375 215.773438 224.859375 215.554688 C 224.765625 210.304688 220.648438 206 215.648438 206 L 191.414062 206 C 190.03125 206 188.710938 205.179688 187.894531 203.828125 C 187.703125 203.546875 187.484375 203.296875 187.203125 203.074219 C 176.921875 195.625 163.9375 194.210938 152.527344 199.304688 L 148.316406 201.1875 L 138.414062 201.1875 L 138.414062 197.355469 C 138.414062 195.972656 137.3125 194.839844 135.898438 194.839844 Z M 125.085938 237.589844 C 123.703125 237.589844 122.570312 236.460938 122.570312 235.078125 C 122.570312 233.691406 123.703125 232.5625 125.085938 232.5625 C 126.46875 232.5625 127.601562 233.691406 127.601562 235.078125 C 127.601562 236.460938 126.46875 237.589844 125.085938 237.589844 Z M 133.382812 203.734375 L 133.382812 241.363281 L 129.265625 241.363281 C 131.277344 240.011719 132.628906 237.71875 132.628906 235.078125 C 132.628906 230.925781 129.234375 227.53125 125.085938 227.53125 C 120.9375 227.53125 117.539062 230.925781 117.539062 235.078125 C 117.539062 237.683594 118.890625 240.011719 120.902344 241.363281 L 117.539062 241.363281 L 117.539062 199.867188 L 133.382812 199.867188 Z M 148.882812 206.25 C 149.226562 206.25 149.574219 206.1875 149.886719 206.03125 L 154.601562 203.925781 C 164.222656 199.648438 175.128906 200.78125 183.902344 206.910156 C 185.660156 209.519531 188.425781 211.027344 191.445312 211.027344 L 215.683594 211.027344 C 217.945312 211.027344 219.832031 213.101562 219.863281 215.617188 C 219.894531 217.03125 219.390625 218.351562 218.480469 219.265625 C 218.039062 219.703125 217.503906 220.050781 216.96875 220.238281 C 216.246094 220.363281 215.523438 220.425781 214.800781 220.425781 L 187.828125 220.425781 C 186.445312 220.425781 185.316406 221.558594 185.316406 222.941406 C 185.316406 224.324219 186.445312 225.457031 187.828125 225.457031 L 215.933594 225.457031 C 216.6875 225.457031 217.441406 225.363281 218.164062 225.175781 C 221.308594 224.609375 224.261719 223.226562 226.871094 221.152344 L 249.945312 202.476562 C 249.976562 202.445312 249.976562 202.445312 250.007812 202.414062 C 251.644531 201 253.875 201.1875 255.351562 202.792969 C 256.988281 204.585938 257.113281 207.570312 255.667969 209.550781 L 212.539062 244.757812 C 200.339844 249.222656 192.386719 249.160156 180.097656 244.601562 C 180.066406 244.601562 180.035156 244.570312 179.972656 244.570312 L 149.730469 234.949219 C 149.480469 234.886719 149.226562 234.824219 148.976562 234.824219 L 138.414062 234.824219 L 138.414062 206.21875 L 148.882812 206.21875 Z M 148.882812 206.25 " fill-opacity="1" fill-rule="nonzero"/></g></svg>