<svg xmlns="http://www.w3.org/2000/svg" xmlns:xlink="http://www.w3.org/1999/xlink" width="500" zoomAndPan="magnify" viewBox="0 0 375 374.999991" height="500" preserveAspectRatio="xMidYMid meet" version="1.0"><defs><clipPath id="28924e3b93"><path d="M 112.5 121.3125 L 262.5 121.3125 L 262.5 254 L 112.5 254 Z M 112.5 121.3125 " clip-rule="nonzero"/></clipPath></defs><g clip-path="url(#28924e3b93)"><path fill="#0277bd" d="M 237.449219 121.304688 L 127.84375 121.304688 L 127.84375 134.550781 L 237.449219 134.550781 Z M 138.089844 130.035156 L 137.992188 130.035156 C 136.828125 130.035156 135.882812 129.09375 135.882812 127.929688 C 135.882812 126.765625 136.828125 125.820312 137.992188 125.820312 L 138.089844 125.820312 C 139.25 125.820312 140.195312 126.765625 140.195312 127.929688 C 140.195312 129.09375 139.25 130.035156 138.089844 130.035156 Z M 144.660156 130.035156 L 144.566406 130.035156 C 143.398438 130.035156 142.457031 129.09375 142.457031 127.929688 C 142.457031 126.765625 143.398438 125.820312 144.566406 125.820312 L 144.660156 125.820312 C 145.824219 125.820312 146.765625 126.765625 146.765625 127.929688 C 146.765625 129.09375 145.824219 130.035156 144.660156 130.035156 Z M 151.230469 130.035156 L 151.140625 130.035156 C 149.972656 130.035156 149.03125 129.09375 149.03125 127.929688 C 149.03125 126.765625 149.972656 125.820312 151.140625 125.820312 L 151.230469 125.820312 C 152.398438 125.820312 153.339844 126.765625 153.339844 127.929688 C 153.339844 129.09375 152.398438 130.035156 151.230469 130.035156 Z M 227.292969 130.035156 L 169.574219 130.035156 C 168.410156 130.035156 167.464844 129.09375 167.464844 127.929688 C 167.464844 126.765625 168.410156 125.820312 169.574219 125.820312 L 227.292969 125.820312 C 228.457031 125.820312 229.402344 126.765625 229.402344 127.929688 C 229.402344 129.09375 228.457031 130.035156 227.292969 130.035156 Z M 248.554688 145.589844 L 241.667969 145.589844 L 241.667969 141.371094 L 250.664062 141.371094 C 251.824219 141.371094 252.769531 142.316406 252.769531 143.480469 L 252.769531 184.382812 C 251.4375 183.441406 250.027344 182.601562 248.554688 181.871094 Z M 169.28125 176.179688 L 161.925781 172.433594 L 168.441406 169.117188 L 181.6875 175.859375 C 181.988281 176.007812 182.316406 176.085938 182.640625 176.085938 C 182.96875 176.085938 183.296875 176.007812 183.597656 175.859375 L 196.847656 169.117188 L 203.363281 172.429688 L 182.640625 182.972656 L 169.535156 176.308594 L 169.460938 176.269531 C 169.429688 176.25 169.394531 176.234375 169.363281 176.21875 Z M 169.234375 164.792969 L 161.925781 161.074219 L 182.640625 150.53125 L 203.359375 161.074219 L 196.027344 164.804688 L 196.011719 164.808594 C 195.921875 164.847656 195.839844 164.890625 195.757812 164.9375 L 195.75 164.945312 L 182.640625 171.613281 L 169.558594 164.953125 C 169.457031 164.890625 169.347656 164.835938 169.234375 164.792969 Z M 214.90625 251.558594 C 214.90625 252.722656 213.964844 253.667969 212.796875 253.667969 L 152.492188 253.667969 C 151.332031 253.667969 150.386719 252.722656 150.386719 251.558594 C 150.386719 250.394531 151.332031 249.449219 152.492188 249.449219 L 163.847656 249.449219 L 163.847656 234.214844 L 114.632812 234.214844 C 113.464844 234.214844 112.523438 233.269531 112.523438 232.105469 L 112.523438 143.480469 C 112.523438 142.316406 113.464844 141.371094 114.632812 141.371094 L 123.628906 141.371094 L 123.628906 145.589844 L 116.738281 145.589844 L 116.738281 219 L 202.351562 219 C 202.707031 220.449219 203.164062 221.855469 203.714844 223.21875 C 204.675781 225.632812 205.925781 227.90625 207.410156 229.996094 C 208.480469 231.5 209.675781 232.910156 210.980469 234.214844 L 201.4375 234.214844 L 201.4375 249.449219 L 212.796875 249.449219 C 213.964844 249.449219 214.90625 250.394531 214.90625 251.558594 Z M 234.035156 182.675781 C 218.355469 182.675781 205.605469 195.433594 205.605469 211.117188 C 205.605469 226.792969 218.355469 239.546875 234.035156 239.546875 C 249.71875 239.546875 262.476562 226.792969 262.476562 211.117188 C 262.476562 195.433594 249.71875 182.675781 234.035156 182.675781 Z M 224.609375 221.320312 C 224.199219 221.734375 223.660156 221.941406 223.117188 221.941406 C 222.578125 221.941406 222.039062 221.734375 221.625 221.324219 L 212.902344 212.609375 C 212.507812 212.210938 212.285156 211.675781 212.285156 211.117188 C 212.285156 210.558594 212.507812 210.023438 212.902344 209.625 L 221.625 200.902344 C 222.453125 200.078125 223.785156 200.078125 224.609375 200.902344 C 225.433594 201.726562 225.433594 203.058594 224.609375 203.882812 L 217.378906 211.117188 L 224.609375 218.339844 C 225.433594 219.160156 225.433594 220.5 224.609375 221.320312 Z M 240.195312 202.464844 L 231.734375 221.472656 C 231.386719 222.257812 230.617188 222.726562 229.808594 222.726562 C 229.523438 222.726562 229.230469 222.667969 228.953125 222.542969 C 227.890625 222.070312 227.410156 220.824219 227.882812 219.761719 L 236.34375 200.75 C 236.816406 199.6875 238.0625 199.207031 239.125 199.683594 C 240.191406 200.15625 240.667969 201.402344 240.195312 202.464844 Z M 246.449219 221.324219 C 246.039062 221.734375 245.5 221.941406 244.960938 221.941406 C 244.421875 221.941406 243.882812 221.734375 243.46875 221.320312 C 242.648438 220.5 242.648438 219.160156 243.46875 218.339844 L 250.703125 211.117188 L 243.46875 203.882812 C 242.648438 203.058594 242.648438 201.726562 243.46875 200.902344 C 244.292969 200.078125 245.628906 200.078125 246.449219 200.902344 L 255.175781 209.625 C 255.570312 210.023438 255.792969 210.558594 255.792969 211.113281 C 255.792969 211.675781 255.570312 212.210938 255.175781 212.609375 Z M 234.035156 178.460938 C 235.1875 178.460938 236.328125 178.519531 237.449219 178.636719 L 237.449219 138.769531 L 127.84375 138.769531 L 127.84375 206.097656 L 201.769531 206.097656 C 204.191406 190.460938 217.738281 178.460938 234.035156 178.460938 Z M 182.640625 198.808594 C 182.316406 198.808594 181.988281 198.730469 181.6875 198.578125 L 156.316406 185.675781 C 155.613281 185.3125 155.167969 184.585938 155.167969 183.792969 C 155.167969 183 155.613281 182.273438 156.320312 181.914062 L 163.792969 178.117188 L 156.316406 174.3125 C 155.613281 173.949219 155.167969 173.226562 155.167969 172.433594 C 155.167969 171.640625 155.613281 170.914062 156.316406 170.554688 L 163.792969 166.75 L 156.316406 162.953125 C 155.613281 162.589844 155.167969 161.863281 155.167969 161.074219 C 155.167969 160.277344 155.613281 159.550781 156.316406 159.195312 L 181.6875 146.289062 C 182.285156 145.980469 182.996094 145.980469 183.597656 146.289062 L 208.964844 159.195312 C 209.671875 159.550781 210.117188 160.277344 210.117188 161.074219 C 210.117188 161.863281 209.671875 162.589844 208.964844 162.953125 L 201.496094 166.75 L 208.96875 170.554688 C 209.671875 170.914062 210.117188 171.640625 210.117188 172.433594 C 210.117188 173.226562 209.671875 173.953125 208.964844 174.3125 L 201.492188 178.113281 L 208.964844 181.914062 C 209.671875 182.273438 210.117188 183 210.117188 183.792969 C 210.117188 184.585938 209.671875 185.3125 208.964844 185.675781 L 183.597656 198.578125 C 183.296875 198.730469 182.96875 198.808594 182.640625 198.808594 Z M 196.84375 180.484375 L 203.359375 183.796875 L 182.640625 194.335938 L 161.929688 183.796875 L 168.445312 180.484375 L 181.6875 187.21875 C 181.988281 187.371094 182.316406 187.449219 182.640625 187.449219 C 182.96875 187.449219 183.296875 187.371094 183.597656 187.21875 Z M 196.84375 180.484375 " fill-opacity="1" fill-rule="nonzero"/></g></svg>