<svg xmlns="http://www.w3.org/2000/svg" xmlns:xlink="http://www.w3.org/1999/xlink" width="500" zoomAndPan="magnify" viewBox="0 0 375 374.999991" height="500" preserveAspectRatio="xMidYMid meet" version="1.0"><defs><clipPath id="eb1c206869"><path d="M 17.714844 24 L 357.464844 24 L 357.464844 364.117188 L 17.714844 364.117188 Z M 17.714844 24 " clip-rule="nonzero"/></clipPath><clipPath id="2d329c3d7e"><path d="M 35 172 L 344 172 L 344 364.117188 L 35 364.117188 Z M 35 172 " clip-rule="nonzero"/></clipPath></defs><g clip-path="url(#eb1c206869)"><path fill="#f3a61e" d="M 357.421875 194.359375 C 357.421875 218.246094 352.488281 240.988281 343.554688 261.589844 C 317.507812 321.886719 257.484375 364.085938 187.597656 364.085938 C 117.707031 364.085938 63.542969 325.914062 35.6875 270.28125 C 24.226562 247.441406 17.769531 221.652344 17.769531 194.359375 C 17.769531 100.625 93.808594 24.65625 187.597656 24.65625 C 281.386719 24.65625 357.421875 100.625 357.421875 194.359375 Z M 357.421875 194.359375 " fill-opacity="1" fill-rule="nonzero"/></g><g clip-path="url(#2d329c3d7e)"><path fill="#3d3b3c" d="M 343.554688 261.589844 C 317.507812 321.886719 257.484375 364.085938 187.597656 364.085938 C 117.707031 364.085938 63.542969 325.914062 35.6875 270.28125 C 40.597656 267.542969 46.125 265.328125 52.296875 263.660156 C 73.289062 258.039062 104.363281 250.753906 104.363281 250.753906 L 113.917969 227.175781 L 112.394531 172.902344 C 112.394531 172.902344 133.578125 171.285156 145.179688 172.902344 C 156.785156 174.5 200.511719 192.144531 200.511719 192.144531 L 225.054688 177 C 225.054688 177 244.046875 174.785156 253.480469 175.285156 C 262.917969 175.808594 275.308594 230.488281 275.308594 230.488281 L 284.363281 246.179688 C 284.363281 246.179688 300.234375 253.96875 321.65625 258.351562 C 330.1875 260.089844 337.285156 260.445312 343.554688 261.589844 Z M 343.554688 261.589844 " fill-opacity="1" fill-rule="nonzero"/></g><path fill="#56352c" d="M 136.691406 135.761719 C 136.691406 135.761719 123.917969 126.933594 121.3125 123.605469 C 118.707031 120.28125 113.09375 112.738281 109.589844 103.769531 C 106.085938 94.800781 95.808594 82.050781 99.582031 73.984375 C 103.355469 65.921875 123.140625 49.402344 123.140625 49.402344 C 123.140625 49.402344 126.714844 27.347656 142.804688 20.570312 C 158.898438 13.78125 210.1875 10.875 237.078125 24.640625 C 250.902344 31.714844 268.328125 34.121094 272.554688 39.160156 C 272.554688 39.160156 265.199219 40.574219 261.902344 46.128906 C 260.742188 48.089844 269.957031 53.71875 271.265625 54.988281 C 278.8125 62.277344 282.578125 61.269531 282.578125 61.269531 C 282.578125 61.269531 273.53125 65.039062 263.472656 63.53125 C 263.472656 63.53125 269.757812 68.554688 277.046875 82.121094 C 284.339844 95.6875 278.304688 101.300781 278.304688 101.300781 C 278.304688 101.300781 279.234375 93.933594 265.191406 91.171875 C 265.191406 91.171875 266.429688 98.484375 263.464844 106.398438 C 260.503906 114.3125 249.636719 126.601562 249.636719 126.601562 L 187.589844 166.289062 L 136.683594 135.753906 Z M 136.691406 135.761719 " fill-opacity="1" fill-rule="nonzero"/><path fill="#da8059" d="M 131.359375 129.527344 C 131.359375 129.527344 126.167969 116.183594 118.082031 117.464844 C 109.996094 118.742188 107.421875 133.578125 111.488281 147.261719 C 115.546875 160.949219 124.472656 174.476562 134.03125 167.226562 C 141.296875 161.710938 131.359375 129.527344 131.359375 129.527344 Z M 131.359375 129.527344 " fill-opacity="1" fill-rule="nonzero"/><path fill="#da8059" d="M 244.078125 124.164062 C 244.078125 124.164062 247.582031 111.144531 255.277344 111.507812 C 262.972656 111.875 266.90625 125.511719 264.5 138.738281 C 262.101562 151.96875 255.117188 165.542969 245.4375 159.734375 C 238.066406 155.3125 244.078125 124.164062 244.078125 124.164062 Z M 244.078125 124.164062 " fill-opacity="1" fill-rule="nonzero"/><path fill="#fbc092" d="M 253.480469 246.441406 L 243.449219 275.6875 L 165.007812 292.570312 L 123.140625 251.992188 C 123.140625 251.992188 142.035156 243.15625 146.085938 233.320312 C 147.515625 229.796875 147.515625 222.746094 146.921875 215.125 C 145.824219 201.410156 142.796875 185.859375 142.796875 185.859375 L 234.371094 181.144531 C 234.371094 181.144531 233.5625 195.550781 233.324219 209.554688 C 233.132812 220.199219 233.277344 230.628906 234.371094 234.34375 C 236.898438 242.917969 253.480469 246.441406 253.480469 246.441406 Z M 253.480469 246.441406 " fill-opacity="1" fill-rule="nonzero"/><path fill="#da8059" d="M 234.371094 181.144531 C 234.371094 181.144531 233.5625 195.550781 233.324219 209.554688 C 219.382812 222.769531 195.625 244.226562 177.207031 241.511719 C 164.363281 239.632812 151.980469 229.796875 146.921875 215.125 C 145.824219 201.410156 142.796875 185.859375 142.796875 185.859375 Z M 234.371094 181.144531 " fill-opacity="1" fill-rule="nonzero"/><path fill="#fbc092" d="M 126.730469 120.574219 C 126.730469 120.574219 132.234375 160.457031 131.835938 168.902344 C 131.449219 177.347656 132.425781 183.4375 137.730469 187.761719 C 143.035156 192.082031 169.972656 216.644531 180.183594 218.214844 C 190.398438 219.785156 199.644531 219.199219 206.523438 215.070312 C 213.402344 210.941406 234.238281 193.851562 239.152344 189.730469 C 244.070312 185.613281 245.640625 181.300781 245.640625 169.800781 C 245.640625 158.296875 244.65625 129.617188 245.640625 113.121094 C 246.128906 105.023438 242.109375 55.957031 242.109375 55.957031 L 173.503906 37.296875 L 134.785156 54.972656 L 118.074219 70.890625 L 126.722656 120.589844 Z M 126.730469 120.574219 " fill-opacity="1" fill-rule="nonzero"/><path stroke-linecap="round" transform="matrix(0.794285, 0, 0, 0.79382, 17.770105, 0.549094)" fill="none" stroke-linejoin="round" d="M 206.621875 148.360071 C 206.621875 148.360071 210.792293 184.311617 209.661166 190.137874 " stroke="#da8059" stroke-width="6" stroke-opacity="1" stroke-miterlimit="4"/><path stroke-linecap="round" transform="matrix(0.794285, 0, 0, 0.79382, 17.770105, 0.549094)" fill="none" stroke-linejoin="round" d="M 145.909827 144.010062 C 145.909827 144.010062 167.23896 127.869757 177.999427 127.102108 C 188.759894 126.329539 192.030328 128.450414 192.030328 128.450414 " stroke="#7d2929" stroke-width="6" stroke-opacity="1" stroke-miterlimit="4"/><path stroke-linecap="round" transform="matrix(0.794285, 0, 0, 0.79382, 17.770105, 0.549094)" fill="none" stroke-linejoin="round" d="M 230.080479 128.440573 C 230.080479 128.440573 234.118113 127.141475 242.572062 126.92988 C 251.021094 126.718284 269.281429 139.768311 269.281429 139.768311 " stroke="#7d2929" stroke-width="6" stroke-opacity="1" stroke-miterlimit="4"/><path fill="#3d1119" d="M 165.253906 126.105469 C 165.304688 126.648438 165.320312 127.191406 165.304688 127.726562 C 165.289062 128.265625 165.238281 128.792969 165.15625 129.304688 C 165.074219 129.816406 164.957031 130.308594 164.8125 130.777344 C 164.664062 131.246094 164.488281 131.683594 164.285156 132.089844 C 164.078125 132.496094 163.847656 132.863281 163.59375 133.191406 C 163.339844 133.519531 163.0625 133.800781 162.769531 134.039062 C 162.472656 134.277344 162.160156 134.464844 161.835938 134.601562 C 161.511719 134.738281 161.179688 134.824219 160.839844 134.855469 C 160.496094 134.890625 160.15625 134.867188 159.808594 134.792969 C 159.464844 134.71875 159.125 134.59375 158.792969 134.414062 C 158.457031 134.238281 158.132812 134.011719 157.820312 133.738281 C 157.507812 133.460938 157.214844 133.144531 156.9375 132.785156 C 156.660156 132.425781 156.402344 132.027344 156.171875 131.59375 C 155.941406 131.160156 155.734375 130.699219 155.558594 130.210938 C 155.378906 129.722656 155.230469 129.214844 155.113281 128.691406 C 154.996094 128.164062 154.914062 127.632812 154.863281 127.089844 C 154.8125 126.546875 154.792969 126.007812 154.808594 125.46875 C 154.828125 124.929688 154.875 124.402344 154.960938 123.890625 C 155.042969 123.378906 155.15625 122.886719 155.304688 122.417969 C 155.449219 121.949219 155.625 121.511719 155.832031 121.105469 C 156.035156 120.699219 156.265625 120.332031 156.523438 120.003906 C 156.777344 119.675781 157.050781 119.394531 157.347656 119.15625 C 157.644531 118.917969 157.953125 118.730469 158.277344 118.59375 C 158.601562 118.457031 158.9375 118.371094 159.277344 118.339844 C 159.617188 118.308594 159.960938 118.328125 160.304688 118.402344 C 160.648438 118.476562 160.988281 118.601562 161.324219 118.78125 C 161.660156 118.957031 161.984375 119.183594 162.292969 119.457031 C 162.605469 119.734375 162.902344 120.050781 163.179688 120.410156 C 163.457031 120.773438 163.710938 121.167969 163.945312 121.601562 C 164.175781 122.035156 164.378906 122.496094 164.558594 122.984375 C 164.738281 123.472656 164.882812 123.980469 165 124.503906 C 165.117188 125.03125 165.203125 125.566406 165.253906 126.105469 Z M 165.253906 126.105469 " fill-opacity="1" fill-rule="nonzero"/><path fill="#3d1119" d="M 213.175781 115.4375 C 213.511719 115.503906 213.835938 115.617188 214.148438 115.78125 C 214.457031 115.949219 214.75 116.164062 215.023438 116.425781 C 215.296875 116.691406 215.546875 116.996094 215.769531 117.34375 C 215.996094 117.695312 216.191406 118.082031 216.359375 118.503906 C 216.523438 118.929688 216.660156 119.378906 216.765625 119.859375 C 216.867188 120.339844 216.9375 120.839844 216.976562 121.359375 C 217.011719 121.875 217.011719 122.40625 216.980469 122.941406 C 216.949219 123.480469 216.882812 124.015625 216.78125 124.550781 C 216.683594 125.085938 216.550781 125.609375 216.386719 126.125 C 216.222656 126.636719 216.03125 127.128906 215.808594 127.597656 C 215.585938 128.070312 215.339844 128.511719 215.070312 128.921875 C 214.800781 129.332031 214.511719 129.703125 214.203125 130.035156 C 213.894531 130.371094 213.570312 130.660156 213.234375 130.90625 C 212.898438 131.152344 212.558594 131.347656 212.207031 131.492188 C 211.859375 131.640625 211.507812 131.734375 211.160156 131.777344 C 210.808594 131.820312 210.464844 131.8125 210.128906 131.75 C 209.792969 131.683594 209.46875 131.570312 209.15625 131.40625 C 208.847656 131.238281 208.554688 131.023438 208.28125 130.761719 C 208.007812 130.496094 207.761719 130.191406 207.535156 129.84375 C 207.3125 129.492188 207.113281 129.105469 206.949219 128.683594 C 206.78125 128.257812 206.644531 127.808594 206.539062 127.328125 C 206.4375 126.847656 206.367188 126.347656 206.332031 125.828125 C 206.292969 125.3125 206.292969 124.78125 206.324219 124.246094 C 206.355469 123.707031 206.421875 123.171875 206.523438 122.636719 C 206.621094 122.101562 206.753906 121.578125 206.917969 121.0625 C 207.082031 120.550781 207.273438 120.058594 207.496094 119.589844 C 207.71875 119.117188 207.964844 118.675781 208.234375 118.265625 C 208.503906 117.855469 208.792969 117.484375 209.101562 117.152344 C 209.410156 116.816406 209.734375 116.527344 210.070312 116.28125 C 210.40625 116.035156 210.75 115.839844 211.097656 115.695312 C 211.445312 115.546875 211.796875 115.453125 212.148438 115.410156 C 212.496094 115.367188 212.839844 115.375 213.175781 115.4375 Z M 213.175781 115.4375 " fill-opacity="1" fill-rule="nonzero"/><path stroke-linecap="round" transform="matrix(0.794285, 0, 0, 0.79382, 17.770105, 0.549094)" fill="none" stroke-linejoin="round" d="M 174.28146 217.108914 C 174.28146 217.108914 186.561572 230.468953 203.149805 230.468953 C 229.647699 230.468953 244.121216 217.108914 244.121216 217.108914 " stroke="#7d2929" stroke-width="3" stroke-opacity="1" stroke-miterlimit="4"/><path fill="#3d3b3c" d="M 191.765625 283.832031 C 191.765625 283.832031 169.683594 278.0625 154.023438 264.042969 C 138.359375 250.023438 123.164062 233.910156 116.617188 214.285156 C 110.074219 194.660156 114.164062 189.238281 122.003906 186.898438 L 112.378906 172.894531 C 112.378906 172.894531 90.914062 173.015625 87.890625 182.359375 C 84.863281 191.707031 102.058594 220.023438 101.648438 224.289062 C 101.234375 228.550781 95.15625 226.484375 87.53125 230.75 C 79.914062 235.011719 80.328125 249.722656 88.4375 260.714844 C 96.554688 271.710938 105.761719 293.785156 121.226562 298.667969 C 136.691406 303.550781 183.925781 292.578125 183.925781 292.578125 C 183.925781 292.578125 218.765625 305.175781 241.757812 297.859375 C 264.753906 290.539062 287.269531 260.976562 293.242188 255.554688 C 299.210938 250.132812 304.640625 247.6875 299.210938 240.101562 C 293.785156 232.511719 284.554688 225.730469 284.554688 225.730469 C 284.554688 225.730469 293.234375 191.4375 287.539062 183.5 C 281.847656 175.5625 253.472656 175.292969 253.472656 175.292969 C 253.472656 175.292969 257.96875 188.765625 257.160156 194.367188 C 256.347656 199.972656 261.082031 198.65625 262.042969 205.933594 C 263.210938 214.785156 203.210938 280.65625 191.765625 283.832031 Z M 191.765625 283.832031 " fill-opacity="1" fill-rule="nonzero"/><path fill="#56352c" d="M 127.539062 126.609375 C 127.539062 126.609375 129.503906 119.089844 130.152344 111.5 C 130.804688 103.914062 126.40625 83.875 130.152344 79.3125 C 132.210938 76.8125 141.742188 69.390625 151.980469 65.722656 C 160.398438 62.707031 169.605469 63.269531 172.863281 62.207031 C 177.460938 60.703125 195.738281 57.003906 208.9375 61.246094 C 222.140625 65.484375 231.21875 72.636719 232.855469 84.035156 C 234.484375 95.441406 242.179688 115.390625 245.699219 114.867188 C 249.214844 114.34375 249.582031 49.359375 249.582031 49.359375 L 206.53125 32.367188 L 150.191406 34.222656 L 109.589844 70.605469 Z M 127.539062 126.609375 " fill-opacity="1" fill-rule="nonzero"/></svg>