<svg xmlns="http://www.w3.org/2000/svg" xmlns:xlink="http://www.w3.org/1999/xlink" width="500" zoomAndPan="magnify" viewBox="0 0 375 374.999991" height="500" preserveAspectRatio="xMidYMid meet" version="1.0"><defs><clipPath id="eaad3d3b1a"><path d="M 113 123 L 262.5 123 L 262.5 251.863281 L 113 251.863281 Z M 113 123 " clip-rule="nonzero"/></clipPath></defs><g clip-path="url(#eaad3d3b1a)"><path fill="#d32f2f" d="M 198.042969 141.421875 C 194.492188 141.082031 190.910156 140.535156 187.363281 140.46875 C 178.082031 140.230469 169.007812 142.003906 159.863281 143.402344 C 156.589844 143.914062 155.019531 145.347656 153.554688 148.179688 C 148.503906 157.867188 143.011719 167.316406 137.6875 176.835938 C 137.347656 177.484375 136.90625 178.304688 137.007812 178.953125 C 137.519531 181.953125 138.234375 184.886719 138.917969 188.128906 C 139.804688 187.445312 140.488281 186.933594 141.167969 186.457031 C 144.988281 183.625 149.730469 184.207031 152.121094 187.824219 C 153.859375 190.414062 153.65625 193.347656 151.539062 195.636719 C 147.140625 200.410156 142.703125 205.1875 138.234375 209.929688 C 136.085938 212.214844 132.433594 212.625 129.636719 210.988281 C 127.011719 209.453125 125.78125 206.417969 126.738281 203.3125 C 127.148438 201.980469 127.828125 200.683594 128.683594 199.558594 C 130.25 197.476562 132.058594 195.566406 133.699219 193.519531 C 134.105469 193.007812 134.414062 192.121094 134.3125 191.507812 C 133.902344 189.253906 133.320312 187.039062 132.742188 184.820312 C 132.640625 184.410156 132.230469 183.898438 131.820312 183.726562 C 130.285156 183.113281 128.578125 182.773438 127.148438 181.988281 C 124.078125 180.316406 121.140625 178.40625 118.140625 176.597656 C 117.285156 176.085938 116.433594 175.644531 115.511719 175.265625 C 113.191406 174.3125 112.578125 173.289062 113.5 170.96875 C 114.558594 168.339844 115.75 165.75 117.015625 163.222656 C 122.097656 152.988281 127.726562 143.0625 134.074219 133.542969 C 135.128906 131.972656 136.359375 130.472656 137.6875 129.074219 C 139.804688 126.820312 141.578125 126.582031 144.035156 128.492188 C 147.34375 131.050781 150.550781 133.816406 153.621094 136.679688 C 155.121094 138.078125 156.386719 138.726562 158.636719 138.285156 C 167.574219 136.476562 176.617188 135.007812 185.761719 134.976562 C 193.4375 134.941406 201.042969 135.761719 207.800781 140.09375 C 209.472656 141.183594 211.175781 140.46875 212.371094 138.933594 C 216.089844 134.15625 219.84375 129.378906 223.765625 124.738281 C 225.335938 122.863281 226.699219 122.933594 228.578125 124.535156 C 239.359375 133.816406 250.105469 143.09375 260.851562 152.375 C 262.351562 153.671875 262.421875 155.070312 260.988281 156.640625 C 258.191406 159.710938 255.359375 162.78125 252.492188 165.78125 C 251.128906 167.214844 250.003906 168.511719 249.660156 170.695312 C 248.875 175.949219 247.375 181.03125 243.828125 185.398438 C 244.851562 186.21875 245.636719 187.070312 246.589844 187.652344 C 250.480469 190.074219 251.058594 193.691406 250.105469 197.683594 C 248.773438 203.277344 245.226562 206.859375 239.664062 208.328125 C 238.640625 208.601562 238.300781 209.042969 238.128906 210.167969 C 237.207031 216.445312 234.683594 221.734375 228.542969 224.601562 C 227.996094 224.839844 227.621094 225.828125 227.554688 226.511719 C 227.28125 229.890625 226.53125 233.097656 224.277344 235.792969 C 222.332031 238.109375 219.808594 239.542969 216.773438 239.679688 C 215.304688 239.75 214.863281 240.363281 214.519531 241.625 C 213.019531 247.289062 206.777344 252.132812 200.941406 251.859375 C 199.03125 251.757812 196.917969 250.972656 195.347656 249.882812 C 189.171875 245.546875 183.203125 240.976562 177.128906 236.472656 C 176.992188 236.371094 176.855469 236.304688 176.546875 236.132812 C 175.355469 237.429688 174.195312 238.792969 172.933594 240.054688 C 169.382812 243.636719 163.753906 242.683594 161.570312 238.144531 C 160.546875 236.03125 160.582031 233.984375 162.289062 232.074219 C 166.519531 227.261719 170.78125 222.484375 174.773438 217.503906 C 177.332031 214.332031 181.699219 214.707031 183.882812 216.378906 C 186.679688 218.492188 187.566406 222.691406 185.554688 225.625 C 184.394531 227.328125 182.859375 228.761719 181.496094 230.332031 C 181.085938 230.808594 180.640625 231.289062 180.097656 231.902344 C 181.871094 233.300781 183.472656 234.664062 185.179688 235.925781 C 189.648438 239.167969 194.152344 242.339844 198.65625 245.582031 C 200.089844 246.605469 201.554688 246.742188 203.160156 246.09375 C 206.160156 244.933594 208.6875 243.261719 209.675781 239.917969 C 209.949219 238.929688 209.8125 238.214844 209.0625 237.597656 C 203.332031 232.960938 197.597656 228.355469 191.832031 223.746094 C 190.605469 222.792969 189.34375 221.941406 189.480469 220.097656 C 189.617188 218.527344 190.640625 217.574219 192.140625 218.015625 C 193.46875 218.390625 194.835938 219.003906 195.925781 219.859375 C 200.804688 223.746094 205.582031 227.738281 210.390625 231.695312 C 210.871094 232.074219 211.28125 232.480469 211.757812 232.855469 C 215.441406 235.792969 220.421875 234.121094 221.652344 229.546875 C 221.753906 229.136719 221.855469 228.695312 221.925781 228.285156 C 222.503906 225.660156 222.128906 223.578125 219.671875 221.769531 C 214.246094 217.777344 209.0625 213.511719 203.84375 209.28125 C 203.089844 208.667969 202.238281 207.917969 202 207.066406 C 201.761719 206.210938 201.898438 204.847656 202.476562 204.265625 C 203.023438 203.722656 204.320312 203.722656 205.273438 203.753906 C 205.855469 203.789062 206.402344 204.371094 206.914062 204.777344 C 212.371094 209.144531 217.828125 213.546875 223.289062 217.914062 C 226.085938 220.164062 227.246094 220.0625 229.53125 217.265625 C 231.441406 214.945312 232.839844 212.351562 232.875 209.28125 C 232.875 208.464844 232.433594 207.441406 231.816406 206.894531 C 227.042969 202.800781 222.195312 198.808594 217.421875 194.714844 C 216.464844 193.929688 215.613281 192.972656 214.929688 191.949219 C 214.246094 190.960938 214.417969 189.664062 215.40625 189.015625 C 216.160156 188.539062 217.421875 188.265625 218.238281 188.574219 C 219.433594 189.015625 220.457031 189.9375 221.445312 190.789062 C 225.8125 194.507812 230.179688 198.261719 234.445312 202.082031 C 236.015625 203.480469 237.582031 203.890625 239.324219 202.800781 C 240.789062 201.878906 242.359375 200.957031 243.417969 199.660156 C 245.976562 196.589844 245.566406 193.726562 242.597656 191.132812 C 230.589844 180.589844 218.613281 170.046875 206.570312 159.609375 C 205.855469 158.992188 204.59375 158.617188 203.636719 158.753906 C 198.382812 159.4375 193.128906 160.1875 187.945312 161.109375 C 186.273438 161.414062 184.667969 162.269531 183.03125 162.917969 C 178.152344 164.894531 173.683594 164.007812 169.589844 161.007812 C 166.824219 158.992188 166.519531 156.296875 168.972656 153.875 C 171.261719 151.625 174.058594 149.882812 176.378906 147.667969 C 179.484375 144.699219 183.203125 143.605469 187.363281 143.300781 C 190.945312 143.027344 194.492188 142.378906 198.078125 141.902344 C 198.042969 141.796875 198.042969 141.628906 198.042969 141.421875 Z M 141.476562 132.824219 C 132.402344 144.9375 125.75 157.9375 119.230469 171.070312 C 123.292969 173.425781 127.078125 175.644531 131.003906 177.929688 C 137.074219 166.875 143.046875 156.027344 148.980469 145.175781 C 149.597656 144.050781 150.859375 142.753906 150.652344 141.765625 C 150.449219 140.671875 148.914062 139.820312 147.925781 138.898438 C 145.945312 136.953125 143.863281 135.042969 141.476562 132.824219 Z M 255.425781 154.695312 C 254.265625 153.738281 253.242188 152.921875 252.289062 152.066406 C 248.058594 148.28125 243.894531 144.425781 239.5625 140.707031 C 235.640625 137.328125 231.546875 134.089844 227.519531 130.847656 C 227.144531 130.539062 226.15625 130.402344 225.949219 130.609375 C 223.21875 133.78125 220.558594 137.023438 217.796875 140.332031 C 227.449219 148.316406 237.003906 156.230469 246.660156 164.214844 C 249.628906 161.039062 252.492188 157.9375 255.425781 154.695312 Z M 255.425781 154.695312 " fill-opacity="1" fill-rule="nonzero"/></g><path fill="#d32f2f" d="M 169.214844 205.769531 C 172.796875 205.769531 175.730469 208.359375 175.796875 211.839844 C 175.832031 212.964844 175.386719 214.367188 174.671875 215.253906 C 169.621094 221.292969 164.472656 227.226562 159.351562 233.199219 C 156.417969 236.609375 152.804688 237.191406 149.730469 234.800781 C 146.492188 232.242188 145.945312 227.910156 148.742188 224.5 C 152.324219 220.164062 156.144531 216.039062 159.863281 211.808594 C 160.890625 210.648438 161.878906 209.488281 162.9375 208.394531 C 164.878906 206.417969 166.484375 205.769531 169.214844 205.769531 Z M 169.214844 205.769531 " fill-opacity="1" fill-rule="nonzero"/><path fill="#d32f2f" d="M 143.695312 225.554688 C 138.132812 225.179688 134.855469 219.550781 137.65625 214.605469 C 139.257812 211.738281 141.511719 209.179688 143.695312 206.6875 C 146.492188 203.480469 149.460938 200.410156 152.394531 197.308594 C 154.339844 195.261719 158.089844 194.679688 160.582031 196.011719 C 163.140625 197.375 164.675781 200.71875 163.890625 203.550781 C 163.6875 204.265625 163.277344 204.949219 162.765625 205.527344 C 157.339844 211.738281 151.914062 217.949219 146.421875 224.089844 C 145.742188 224.804688 144.613281 225.078125 143.695312 225.554688 Z M 143.695312 225.554688 " fill-opacity="1" fill-rule="nonzero"/></svg>